<svg width="1600" height="1200" viewBox="0 0 1600 1200" fill="none" xmlns="http://www.w3.org/2000/svg">
<path d="M270.431 240.465C277.405 287.565 278.898 335.152 280.385 382.639C280.485 384.536 283.481 384.379 283.381 382.482C281.994 334.989 280.401 287.408 273.427 240.308C273.128 238.421 270.132 238.578 270.431 240.465Z" fill="#E8E8E8"/>
<path d="M272.086 241.48C292.406 241.316 311.98 234.583 331.937 231.334C352.194 228.069 372.766 226.991 393.248 228.02C395.156 228.121 394.999 225.125 393.091 225.024C372.609 223.995 352.037 225.073 331.78 228.338C311.823 231.587 292.249 238.32 271.929 238.484C269.932 238.589 270.089 241.585 272.086 241.48Z" fill="#E8E8E8"/>
<path d="M391.908 227.289C395.154 237.634 396.118 248.398 396.878 259.073C397.779 270.541 398.786 282.105 399.787 293.568C401.774 316.195 403.966 338.911 406.352 361.517C406.552 363.41 409.548 363.253 409.348 361.36C406.925 338.055 404.602 314.745 402.579 291.419C401.577 279.956 400.676 268.487 399.78 257.118C398.936 246.748 397.887 236.289 394.762 226.339C394.163 224.468 391.309 225.418 391.908 227.289Z" fill="#E8E8E8"/>
<path d="M281.899 384.762C303.694 389.829 326.642 386.323 348.396 382.98C369.358 379.778 390.02 374.69 408.806 364.393C410.462 363.505 408.828 360.987 407.172 361.875C388.386 372.172 367.513 377.071 346.552 380.272C325.586 383.374 303.531 386.733 282.646 381.819C280.617 381.325 279.97 384.263 281.899 384.762Z" fill="#E8E8E8"/>
<path d="M398.508 253.88C410.592 251.344 422.944 250.096 435.364 250.146C441.776 250.211 448.204 250.575 454.652 251.339C457.375 251.697 460.381 251.739 463.025 252.502C466.788 253.607 466.729 256.313 467.512 259.777C473.388 284.003 477.681 308.612 480.482 333.399C480.682 335.291 483.678 335.134 483.478 333.242C481.842 319.209 479.806 305.196 477.275 291.309C476.136 284.86 474.797 278.421 473.359 271.988C472.576 268.524 471.794 265.06 471.012 261.596C470.355 258.627 469.957 254.842 468.617 252.209C466.715 248.403 459.83 248.864 456.203 248.453C449.854 247.685 443.521 247.215 437.109 247.151C423.78 246.948 410.635 248.338 397.558 251.026C395.676 251.425 396.627 254.279 398.508 253.88Z" fill="#E8E8E8"/>
<path d="M367.418 379.079C369.478 383.978 370.838 388.914 371.315 394.196C371.551 396.787 371.314 399.904 373.321 401.901C375.328 403.899 378.624 403.726 381.241 403.99C385.467 404.369 389.787 404.643 393.992 404.623C413.523 404.701 432.865 401.184 452.002 397.578C453.889 397.278 453.727 394.183 451.845 394.582C435.483 397.642 419.121 400.703 402.433 401.377C398.639 401.576 394.833 401.575 391.023 401.474C388.516 401.405 386.103 401.232 383.591 401.063C381.883 400.952 378.293 401.24 376.943 400.31C373.416 397.991 374.217 392.241 373.424 388.578C372.731 384.909 371.549 381.466 370.167 378.034C369.479 376.367 366.62 377.218 367.418 379.079Z" fill="#E8E8E8"/>
<path d="M444.017 336.912C446.716 346.384 447.634 356.25 448.651 366.11C449.642 375.471 450.639 384.932 451.53 394.298C453.334 413.43 454.838 432.577 456.048 451.84C456.147 453.738 459.143 453.581 459.044 451.683C457.803 431.821 456.167 412.079 454.327 392.249C452.554 373.716 452.023 354.017 446.876 336.062C446.372 334.085 443.518 335.036 444.017 336.912Z" fill="#E8E8E8"/>
<path d="M446.108 338.605C466.917 336.313 487.804 335.519 508.664 336.128C510.572 336.228 510.415 333.232 508.507 333.132C487.641 332.423 466.76 333.317 445.951 335.609C444.064 335.909 444.221 338.905 446.108 338.605Z" fill="#E8E8E8"/>
<path d="M455.779 452.455C458.501 456.618 462.679 458.002 467.504 458.349C474.741 458.871 482.047 458.789 489.263 458.911C504.694 459.104 520.115 459.097 535.499 458.391C542.989 457.998 550.573 457.501 558.048 456.809C561.632 456.421 565.217 456.032 568.801 455.644C570.693 455.445 574.005 455.572 575.629 454.085C576.68 453.128 576.712 451.825 576.839 450.416C577.034 446.501 576.725 442.512 576.621 438.612C576.507 430.707 576.293 422.807 576.179 414.902C576.18 413 573.184 413.157 573.183 415.059C573.308 421.261 573.438 427.563 573.563 433.765C573.62 436.766 573.672 439.667 573.729 442.669C573.713 444.272 573.802 445.969 573.786 447.572C573.832 450.374 573.585 451.388 570.631 452.344C568.071 453.179 564.56 453.063 561.875 453.404C558.59 453.776 555.399 454.043 552.109 454.316C545.928 454.84 539.736 455.165 533.445 455.494C521.356 456.028 509.147 456.167 497.022 456.001C490.809 455.926 484.597 455.851 478.279 455.682C471.862 455.518 462.322 456.919 458.297 450.821C457.21 449.176 454.697 450.91 455.779 452.455Z" fill="#E8E8E8"/>
<path d="M283.373 256.209C284.154 261.575 284.837 266.947 285.619 272.314C285.918 274.201 288.914 274.043 288.614 272.157C287.832 266.79 287.15 261.418 286.368 256.052C286.169 254.16 283.173 254.317 283.373 256.209Z" fill="#2D2D2D"/>
<path d="M286.597 266.154C289.551 265.198 292.516 264.442 295.491 263.885C297.378 263.586 297.221 260.59 295.334 260.89C292.059 261.462 288.795 262.234 285.647 263.3C283.875 263.893 284.826 266.748 286.597 266.154Z" fill="#2D2D2D"/>
<path d="M294.085 252.343C294.263 255.738 294.441 259.134 294.719 262.524C294.86 265.22 294.707 268.032 295.642 270.587C296.335 272.353 299.195 271.502 298.496 269.636C297.556 266.982 297.788 263.765 297.647 261.069C297.49 258.073 297.338 255.177 297.081 252.186C296.976 250.189 293.98 250.346 294.085 252.343Z" fill="#2D2D2D"/>
<path d="M303.44 253.155C307.366 253.55 311.13 250.849 314.888 251.854C316.717 252.359 317.364 249.421 315.535 248.916C311.477 247.927 308.013 250.612 304.087 250.217C302.274 250.012 301.527 252.955 303.44 253.155Z" fill="#2D2D2D"/>
<path d="M308.712 252.478C309.983 257.619 310.759 262.885 311.037 268.178C311.136 270.075 314.132 269.918 314.033 268.021C313.74 262.429 312.952 256.962 311.566 251.527C311.067 249.651 308.213 250.602 308.712 252.478Z" fill="#2D2D2D"/>
<path d="M322.715 248.34C322.781 255.346 323.148 262.336 323.614 269.321C323.713 271.219 326.709 271.062 326.61 269.164C326.144 262.179 325.777 255.189 325.711 248.183C325.611 246.285 322.615 246.442 322.715 248.34Z" fill="#2D2D2D"/>
<path d="M322.72 248.439C325.284 253.412 330.239 256.257 332.22 261.56C332.677 262.638 334.5 263.043 334.937 261.818C337.062 256.5 339.291 251.276 341.416 245.957C340.512 245.905 339.608 245.852 338.699 245.699C340.61 253.51 342.527 261.421 344.338 269.236C344.837 271.113 347.591 270.167 347.192 268.286C345.281 260.475 343.364 252.565 341.553 244.749C341.29 243.561 339.277 243.366 338.835 244.491C336.711 249.809 334.481 255.033 332.357 260.351C333.261 260.404 334.165 260.457 335.074 260.609C332.973 254.912 328.012 251.967 325.233 246.705C324.345 245.05 321.827 246.684 322.72 248.439Z" fill="#2D2D2D"/>
<path d="M352.343 242.381C354.281 250.691 355.115 258.959 355.06 267.473C355.102 268.272 355.838 268.934 356.637 268.893C361.929 268.615 366.876 267.455 371.775 265.395C373.535 264.602 372.585 261.748 370.824 262.541C366.219 264.485 361.473 265.635 356.48 265.897C357.005 266.37 357.531 266.843 358.056 267.316C358.095 258.502 357.146 249.94 355.098 241.435C354.699 239.554 351.844 240.504 352.343 242.381Z" fill="#2D2D2D"/>
<path d="M286.65 291.987C305.55 289.594 324.593 287.996 343.672 287.096C345.569 286.996 345.412 284 343.515 284.1C324.436 285 305.393 286.598 286.493 288.991C284.6 289.19 284.757 292.186 286.65 291.987Z" fill="#E8E8E8"/>
<path d="M287.824 304.843C292.123 304.718 296.528 304.687 300.806 304.163C304.79 303.754 308.643 302.75 312.664 303.04C314.572 303.141 314.415 300.145 312.507 300.045C308.486 299.755 304.633 300.758 300.649 301.167C296.366 301.591 291.966 301.722 287.667 301.847C285.664 301.852 285.821 304.848 287.824 304.843Z" fill="#E8E8E8"/>
<path d="M288.169 313.337C295.38 313.359 302.392 311.49 309.54 312.217C311.453 312.417 312.1 309.479 310.187 309.279C302.739 308.567 295.423 310.353 288.012 310.341C286.009 310.345 286.166 313.341 288.169 313.337Z" fill="#E8E8E8"/>
<path d="M290.866 332.321C297.357 331.981 303.848 331.641 310.439 331.296C312.337 331.196 312.18 328.2 310.282 328.3C303.791 328.64 297.3 328.98 290.709 329.326C288.812 329.425 288.969 332.421 290.866 332.321Z" fill="#E8E8E8"/>
<path d="M292.531 339.244C297.224 338.998 302.018 338.747 306.711 338.501C308.609 338.401 308.452 335.405 306.554 335.505C301.861 335.751 297.067 336.002 292.374 336.248C290.377 336.353 290.534 339.348 292.531 339.244Z" fill="#E8E8E8"/>
<path d="M290.216 350.48C296.907 350.129 303.597 349.779 310.188 349.433C312.086 349.334 311.929 346.338 310.031 346.438C303.341 346.788 296.65 347.139 290.059 347.484C288.061 347.589 288.218 350.585 290.216 350.48Z" fill="#E8E8E8"/>
<path d="M339.207 299.346C353.287 298.608 367.368 297.87 381.449 297.132C383.346 297.033 383.189 294.037 381.292 294.136C367.211 294.874 353.13 295.612 339.05 296.35C337.152 296.45 337.309 299.446 339.207 299.346Z" fill="#E8E8E8"/>
<path d="M340.823 311.078C350.01 310.596 359.198 310.115 368.285 309.639C370.183 309.539 370.026 306.543 368.128 306.643C358.941 307.124 349.753 307.606 340.666 308.082C338.768 308.181 338.925 311.177 340.823 311.078Z" fill="#E8E8E8"/>
<path d="M378.445 308.605C381.141 308.464 383.937 308.318 386.634 308.176C388.531 308.077 388.374 305.081 386.477 305.18C383.78 305.322 380.984 305.468 378.288 305.609C376.291 305.714 376.448 308.71 378.445 308.605Z" fill="#E8E8E8"/>
<path d="M344.703 329.7C355.688 329.124 366.773 328.543 377.758 327.968C379.655 327.868 379.498 324.872 377.601 324.972C366.616 325.548 355.531 326.129 344.546 326.704C342.649 326.804 342.806 329.8 344.703 329.7Z" fill="#E8E8E8"/>
<path d="M333.631 343.899C343.318 343.391 352.904 342.889 362.591 342.381C364.489 342.282 364.332 339.286 362.434 339.385C352.747 339.893 343.161 340.396 333.474 340.903C331.477 341.008 331.634 344.004 333.631 343.899Z" fill="#E8E8E8"/>
<path d="M345.802 350.671C353.092 350.289 360.382 349.907 367.772 349.52C369.669 349.42 369.512 346.425 367.615 346.524C360.325 346.906 353.035 347.288 345.645 347.675C343.748 347.775 343.905 350.771 345.802 350.671Z" fill="#E8E8E8"/>
<path d="M373.15 341.327C380.141 340.961 387.131 340.594 394.122 340.228C396.019 340.129 395.862 337.133 393.965 337.232C386.974 337.598 379.984 337.965 372.993 338.331C370.996 338.436 371.153 341.432 373.15 341.327Z" fill="#E8E8E8"/>
<path d="M404.071 268.309C410.462 267.974 416.954 267.634 423.345 267.299C425.242 267.199 425.085 264.204 423.188 264.303C416.797 264.638 410.305 264.978 403.914 265.313C402.017 265.413 402.174 268.408 404.071 268.309Z" fill="#E8E8E8"/>
<path d="M428.938 261.298C434.042 263.133 439.629 262.74 444.553 264.986C444.506 264.087 444.464 263.288 444.417 262.389C441.052 265.069 437.688 267.749 434.424 270.423C432.883 271.606 434.517 274.123 436.058 272.941C439.422 270.261 442.786 267.582 446.051 264.907C446.818 264.266 447.045 262.852 445.915 262.311C440.686 259.981 434.894 260.285 429.586 258.36C427.751 257.755 427.104 260.693 428.938 261.298Z" fill="#E8E8E8"/>
<path d="M407.763 281.434C410.091 281.913 412.42 282.391 414.837 282.665C415.442 282.734 420.95 282.745 421.281 283.329C420.95 282.745 413.611 289.839 412.859 290.78C411.634 292.246 413.841 294.233 415.066 292.767C417.332 290.145 419.819 287.912 422.72 285.957C424.171 284.98 425.801 283.593 424.797 281.643C423.804 279.892 421.124 280.333 419.41 280.122C415.789 279.812 412.152 279.201 408.505 278.391C406.487 278.096 405.84 281.034 407.763 281.434Z" fill="#E8E8E8"/>
<path d="M408.493 306.83C418.779 306.291 429.065 305.752 439.351 305.213C441.248 305.114 441.091 302.118 439.194 302.217C428.908 302.756 418.622 303.295 408.336 303.834C406.439 303.934 406.596 306.93 408.493 306.83Z" fill="#E8E8E8"/>
<path d="M439.243 295.505C441.398 296.494 443.631 297.078 445.959 297.557C448.393 298.13 452.519 298.515 454.137 300.733C454.111 300.234 454.085 299.734 454.058 299.235C453.149 300.985 451.23 302.588 449.905 304.059C448.58 305.53 447.161 307.107 445.836 308.578C444.701 309.839 446.303 311.758 447.759 310.881C447.954 310.77 448.243 310.555 448.437 310.445C450.083 309.357 448.454 306.939 446.803 307.927C446.609 308.037 446.32 308.253 446.125 308.363C446.766 309.13 447.407 309.898 448.048 310.665C449.657 308.879 451.366 307.087 452.969 305.2C454.294 303.729 455.929 302.442 456.739 300.697C457.012 300.182 456.981 299.583 456.66 299.199C453.313 294.568 445.429 295.081 440.61 292.93C438.86 292.021 437.498 294.696 439.243 295.505Z" fill="#E8E8E8"/>
<path d="M409.189 323.917C416.379 323.54 423.669 323.158 430.859 322.781C432.756 322.682 432.599 319.686 430.702 319.786C423.512 320.162 416.222 320.544 409.032 320.921C407.134 321.021 407.291 324.017 409.189 323.917Z" fill="#E8E8E8"/>
<path d="M443.205 321.433C450.895 321.031 458.684 320.622 466.373 320.219C468.271 320.12 468.114 317.124 466.216 317.223C458.527 317.626 450.738 318.035 443.048 318.438C441.051 318.542 441.208 321.538 443.205 321.433Z" fill="#E8E8E8"/>
<path d="M412.921 343.549C420.81 343.135 428.699 342.722 436.589 342.308C438.486 342.209 438.329 339.213 436.432 339.312C428.542 339.726 420.653 340.139 412.764 340.553C410.767 340.658 410.924 343.653 412.921 343.549Z" fill="#E8E8E8"/>
<path d="M382.313 382.404C394.496 381.765 406.779 381.122 418.962 380.483C420.86 380.384 420.703 377.388 418.805 377.487C406.622 378.126 394.339 378.77 382.156 379.408C380.158 379.513 380.315 382.509 382.313 382.404Z" fill="#E8E8E8"/>
<path d="M396.549 392.272C407.534 391.697 418.618 391.116 429.603 390.54C431.501 390.441 431.344 387.445 429.446 387.544C418.461 388.12 407.377 388.701 396.392 389.276C394.494 389.376 394.651 392.372 396.549 392.272Z" fill="#E8E8E8"/>
<path d="M490.165 351.918C484.574 346.503 478.469 359.941 477.974 363.872C477.347 369.112 478.923 374.337 480.583 379.257C481.896 383.293 483.177 386.731 481.799 391.009C480.584 394.578 477.956 397.92 474.639 399.596C473.372 400.263 474.092 402.528 475.584 402.35C487.605 400.518 485.419 423.765 488.902 430.992C492.264 437.826 499.327 440.76 506.554 439.179C508.436 438.78 507.485 435.926 505.604 436.325C490.156 439.638 490.049 422.32 488.117 412.207C486.889 405.963 482.975 398.157 475.327 399.359C475.674 400.242 475.926 401.23 476.273 402.113C482.418 398.988 486.703 390.952 485.144 384.125C483.957 378.679 481.393 373.707 480.9 368.125C480.68 365.833 480.854 363.421 481.538 361.182C481.801 360.467 485.971 352.137 488.083 354.23C489.554 355.555 491.536 353.248 490.165 351.918Z" fill="#E8E8E8"/>
<path d="M541.107 412.535C538.752 415.362 539.718 418.516 541.284 421.638C542.624 424.271 545.687 427.315 545.744 430.316C546.032 435.809 539.772 438.64 535.661 440.458C533.9 441.251 534.851 444.105 536.612 443.312C541.506 441.153 546.972 438.463 548.377 432.782C548.966 430.648 548.656 428.562 547.753 426.606C546.392 423.573 540.291 417.985 543.314 414.522C544.639 413.05 542.332 411.069 541.107 412.535Z" fill="#E8E8E8"/>
<path d="M271.7 1102.6H499C502.9 1102.6 502.9 1096.6 499 1096.6C423.2 1096.6 347.4 1096.6 271.7 1096.6C267.8 1096.6 267.8 1102.6 271.7 1102.6Z" fill="#E8E8E8"/>
<path d="M345.8 1079.1H573.9H638.6C642.5 1079.1 642.5 1073.1 638.6 1073.1C562.6 1073.1 486.6 1073.1 410.5 1073.1C388.9 1073.1 367.3 1073.1 345.8 1073.1C342 1073.1 342 1079.1 345.8 1079.1Z" fill="#E8E8E8"/>
<path d="M633.7 1042.1H788.1C792 1042.1 792 1036.1 788.1 1036.1C736.6 1036.1 685.1 1036.1 633.7 1036.1C629.8 1036.1 629.8 1042.1 633.7 1042.1Z" fill="#E8E8E8"/>
<path d="M765.9 1126.1H1087.4H1177.3C1181.2 1126.1 1181.2 1120.1 1177.3 1120.1C1070.1 1120.1 962.9 1120.1 855.8 1120.1C825.8 1120.1 795.9 1120.1 765.9 1120.1C762 1120.1 762 1126.1 765.9 1126.1V1126.1Z" fill="#E8E8E8"/>
<path d="M1019.2 1102.6H1231.7C1235.6 1102.6 1235.6 1096.6 1231.7 1096.6C1160.9 1096.6 1090 1096.6 1019.2 1096.6C1015.3 1096.6 1015.3 1102.6 1019.2 1102.6Z" fill="#E8E8E8"/>
<path d="M459.3 374.6C454.1 375.5 445.9 377.6 437.3 382.9C431.9 386.2 420.9 394.2 414 408.9C411.5 414.1 405.9 426.2 408.7 441.2C412.8 463.4 432.3 474.5 435.4 476.2C445.3 461.1 455.1 445.9 465 430.8C463 412.1 461.1 393.4 459.3 374.6V374.6Z" fill="#EC615B"/>
<path d="M466.7 429C481.3 421.1 495.8 413.2 510.4 405.2C513.6 409.2 519.6 418.1 519.5 430.1C519.5 432.8 519.2 435.3 518.7 437.6C501.3 434.7 484 431.8 466.7 429V429Z" fill="#5222D0"/>
<path d="M310.1 498C311.9 521.5 313.6 545.1 315.4 568.6C321.8 568.2 328.2 567.7 334.5 567.3C332.4 543.4 330.3 519.6 328.2 495.7C322.1 496.5 316.1 497.2 310.1 498V498Z" fill="#5222D0"/>
<path d="M345.8 522.5C346.8 537 347.8 551.4 348.9 565.9C355.3 565.3 361.7 564.8 368 564.2C366.6 549.7 365.3 535.3 363.9 520.8C357.8 521.3 351.8 521.9 345.8 522.5Z" fill="#EC615B"/>
<path d="M573.3 612.1C474.1 621.2 375 630.2 275.8 639.3C266.7 494.1 257.5 348.9 248.4 203.6C347.3 200.1 446.3 196.6 545.2 193.1C554.6 332.8 564 472.5 573.3 612.1V612.1Z" stroke="#161616" stroke-width="2" stroke-miterlimit="10"/>
<path d="M350.7 176.1C351.8 184 353 191.9 354.1 199.8C354.4 201.7 357.3 200.9 357 199C355.9 191.1 354.7 183.2 353.6 175.3C353.3 173.4 350.4 174.2 350.7 176.1Z" fill="#E8E8E8"/>
<path d="M352.8 175.9C375.3 174.4 397.9 173.5 420.4 173C422.3 173 422.3 170 420.4 170C397.8 170.5 375.3 171.5 352.8 172.9C350.9 173 350.9 176 352.8 175.9V175.9Z" fill="#E8E8E8"/>
<path d="M419.5 171.8C420.5 180.3 421.3 188.7 421.8 197.2C421.9 199.1 424.9 199.1 424.8 197.2C424.3 188.7 423.5 180.2 422.5 171.8C422.2 169.9 419.2 169.9 419.5 171.8Z" fill="#E8E8E8"/>
<path d="M352.9 175.8C353.6 183.2 354.3 190.7 355 198.1C355.1 198.9 355.6 199.6 356.5 199.6C378 199.8 399.4 196.4 421 197.1C422.9 197.2 422.9 194.2 421 194.1C399.5 193.4 378.1 196.7 356.5 196.6L358 198.1C357.3 190.7 356.6 183.2 355.9 175.8C355.7 173.9 352.7 173.9 352.9 175.8Z" fill="#E8E8E8"/>
<path d="M354.5 176.8C357.8 178.8 362.1 177.8 365.7 177.6C371.7 177.3 377.7 177 383.7 176.7C395.7 176.1 407.6 175.4 419.6 174.8C419.1 174.3 418.6 173.8 418.1 173.3C418.4 179.8 418.7 186.3 419 192.9C419.1 194.8 422.1 194.8 422 192.9C421.7 186.4 421.4 179.9 421.1 173.3C421.1 172.5 420.4 171.8 419.6 171.8C409 172.4 398.3 172.9 387.7 173.5C382.4 173.8 377.1 174.1 371.7 174.3C367.5 174.5 359.7 176.5 356 174.2C354.4 173.2 352.9 175.8 354.5 176.8Z" fill="#E8E8E8"/>
<path d="M354.4 177.4C355.9 183.5 356.9 189.7 357.5 196C358.5 195.9 359.5 195.7 360.4 195.6C359.3 190.2 359.6 184.9 360.6 179.4C359.6 179.3 358.6 179.1 357.7 179C357.9 185 358.3 190.7 360.6 196.2C361.3 197.8 363.8 196.6 363.3 195C361.6 188.6 360 182.3 361.7 175.7C360.7 175.7 359.8 175.7 358.8 175.7C359.7 181.7 360.6 187.7 361.5 193.7C361.8 195.6 364.7 194.8 364.4 192.9C363.5 186.9 362.6 180.9 361.7 174.9C361.5 173.4 359.1 173.6 358.8 174.9C357 182 358.6 188.9 360.4 195.8C361.3 195.4 362.2 195 363.1 194.6C361 189.6 360.8 184.2 360.6 178.9C360.6 177.3 358 176.8 357.7 178.5C356.6 184.5 356.2 190.3 357.5 196.3C357.8 197.9 360.6 197.6 360.4 195.9C359.8 189.4 358.7 182.9 357.2 176.5C356.8 174.7 354 175.5 354.4 177.4Z" fill="#E8E8E8"/>
<path d="M362.1 182.7C363.2 180.9 364.3 179.1 365.4 177.3C364.5 176.8 363.7 176.3 362.8 175.8C361.5 178.7 360.3 181.6 359 184.5C358.4 185.9 360.2 187.8 361.4 186.3C363.4 183.8 365.3 181.2 367.3 178.7C366.5 178.2 365.6 177.7 364.8 177.2C364 179.6 363 181.8 361.6 184C360.7 185.4 362.9 187.2 364 185.8C365.5 183.9 367 182 368.6 180.1C367.8 179.5 367 178.9 366.2 178.3C364.2 183 362.2 187.6 360.2 192.3C359.6 193.7 361.4 195.6 362.6 194.1C366.2 189.6 369.9 185 373.5 180.5C372.7 179.9 371.9 179.3 371.1 178.7C368.4 183.1 365.7 187.6 363 192C362.3 193.1 363.4 194.6 364.7 194.2C366.3 193.7 366.5 193.5 367.7 192.5C366.9 192 366 191.5 365.2 191C364.6 192.7 363.6 194 362.1 195.1C360.6 196.2 361.9 198.7 363.6 197.7C365.2 196.8 366.7 196.2 368.5 196C367.9 195.4 367.3 194.8 366.7 194.2C364.1 192.9 363.3 191.1 364.3 188.7C364.6 187.4 365.1 186.2 365.7 185.1C366.5 183.7 368 180.3 369.5 183.3C370.6 185.5 366 197.8 365.4 190.2C365.3 188.2 365.5 186.2 366.1 184.4C366.5 183 367.1 181.7 367.8 180.4C368.8 178.4 369.3 178.4 369.4 180.4C371.3 184.4 369 190.7 367.1 194.2C368 194.3 368.9 194.4 369.8 194.6C369 191.8 368.7 189.1 369.3 186.3C369.5 185.2 370.5 179.9 371.6 181.6C373.9 184.9 370.1 192.4 368.5 195.3C369.4 195.6 370.4 195.8 371.3 196.1C371 193.4 370.9 190.8 371.4 188.1C371.7 186.3 372.8 180.5 374.7 180.3C377.4 180 372.2 192.3 371 194.1C371.9 194.2 372.8 194.3 373.7 194.5C372.8 190 372.8 180.4 378.9 178.9C378.3 178.6 377.7 178.2 377.1 177.9C378.2 184 376.5 189.9 372.3 194.4C373.1 194.6 374 194.8 374.8 195.1C374.1 192.3 374 189.6 374.7 186.8C375.1 185.3 377.2 179 379.2 179.5C380.6 179.8 378.8 185.6 378.4 186.9C377.3 190.1 375.6 192.9 373.1 195.3C373.9 195.5 374.8 195.7 375.6 196C374 189.3 376.8 182.6 382.7 179C382 178.7 381.2 178.4 380.5 178.1C382.8 184.2 376.9 192.1 373 196.2C373.8 196.4 374.7 196.6 375.5 196.9C374.8 194 374.8 191.2 375.7 188.3C376 187.4 379 180.6 380.4 181.1C382.4 181.8 379 187.9 378.4 188.8C377.7 190.1 376.4 192.4 375.1 193.2C373.6 194.2 373.7 194.4 373.6 192.2C373.5 189.2 375.5 185.8 377.2 183.6C378.1 182.4 379.6 180.5 381 180C382.6 179.3 382.4 179.1 382.2 181.2C381.5 187.4 378 193 373.6 197.3C374.4 197.5 375.3 197.7 376.1 198C375.2 192.1 377.2 186 381.6 181.9C382.9 180.7 384.4 179.9 384.9 182.4C385.1 183.4 383.9 185.8 383.5 186.7C382.1 190 380.1 192.8 377.6 195.3H379.7C377.9 193.2 380.2 188.6 381.3 186.6C381.8 185.7 386.1 179.1 387.3 179.7C388.7 180.4 385.6 187.1 385.2 187.8C383.8 190.5 382 192.9 379.9 195.1C380.8 195.5 381.6 195.8 382.5 196.2C382.6 188.9 386 182.7 392.2 178.8C391.4 178.4 390.7 177.9 389.9 177.5C390 184.2 387.6 190.1 382.8 194.8C383.7 195.2 384.5 195.5 385.4 195.9C386 188.6 389.4 182.3 395 177.6C394.2 177.5 393.4 177.4 392.6 177.3C395.8 182.1 388.8 191.1 386 194.7C386.9 195.1 387.7 195.4 388.6 195.8C388.7 193 389.2 190.4 390.3 187.8C390.9 186.2 393.4 180.7 395.2 180.3C397.6 179.8 395.1 184.4 394.3 186.1C392.9 189 391 191.5 388.8 193.8C389.6 194.3 390.5 194.8 391.3 195.3C392.2 189.1 394.7 180.9 401.2 178.6C400.6 178.1 399.9 177.6 399.3 177.2C398.5 184 395.5 189.8 390.5 194.4C391.4 194.8 392.2 195.1 393.1 195.5C393.4 192.3 394.1 189.2 395.5 186.2C396.4 184.3 398.8 179.3 401 178.9C402.1 178.7 401 180.4 400.6 181.5C400 183.1 399.2 184.6 398.4 186C396.8 188.8 394.8 191.3 392.5 193.6C393.4 194 394.2 194.3 395.1 194.7C395.5 188.3 398.5 182.8 403.5 178.9C402.8 178.3 402 177.8 401.3 177.2C400.5 181.9 398.1 185.6 394.9 189.1C393 191.2 392.4 190.7 392.2 187.9C392 184.1 394.3 180.3 398.1 179.3C397.5 178.8 396.8 178.3 396.2 177.9C395.9 183.9 394.1 189.3 390.9 194.3C391.8 194.6 392.8 194.8 393.7 195.1C394 192.1 394.8 189.2 396.2 186.5C397.1 184.7 399.4 180.2 401.4 179.7C404.3 178.9 401.4 184.6 400.7 186C399.3 188.8 397.4 191.2 395.2 193.5C396.1 193.9 396.9 194.2 397.8 194.6C397.4 187.3 401.8 180.9 408.7 178.7C408.1 178.2 407.4 177.7 406.8 177.3C406 184.4 402.6 190.4 397.1 195C398 195.4 398.8 195.7 399.7 196.1C400.5 189.2 404 183.3 409.7 179.3C409 179 408.2 178.7 407.5 178.4C409.1 183.6 403.6 190.4 400.6 194.1C401.5 194.5 402.3 194.8 403.2 195.2C403.6 190.1 406.5 180.8 412.6 179.9C412 179.3 411.4 178.7 410.8 178.1C409.7 183.8 407.4 188.9 403.7 193.4C404.6 193.8 405.4 194.1 406.3 194.5C406.6 188.4 409 183.1 413.2 178.8C412.4 178.7 411.6 178.6 410.8 178.5C413.1 182.7 408.4 190.1 406.3 193.8L409 195C410 190.2 410.8 182.1 415.3 179.2C414.7 179.1 414.1 179 413.5 179C416 181.8 411.2 191.2 410.1 194C411.1 194.3 412 194.5 413 194.8C414.4 189.7 415.7 184.7 417.1 179.6C416.1 179.5 415.1 179.3 414.2 179.2C414.4 184 413.7 188.5 412.1 193.1C413.1 193.2 414.1 193.4 415 193.5C415.5 189 415 182 417.6 178.2C416.7 178.1 415.8 178 414.9 177.8C416.3 182.7 415.8 187.4 415.1 192.5C416.1 192.6 417.1 192.8 418 192.9C417.6 187.3 417.2 181.6 416.8 176C415.9 176.4 415.1 176.7 414.2 177.1C418 181 416.5 186.1 414.8 190.6C415.7 190.5 416.6 190.4 417.5 190.2C416.4 188.1 414.2 184.6 414.3 182.1C413.3 180.5 413.7 179.7 415.6 179.8C416.5 181.4 416.8 183.1 416.4 184.8C417.3 184.4 418.1 184.1 419 183.7C417.4 181.8 416.6 180 416.1 177.7C415.4 178.3 414.6 178.8 413.9 179.4C414.3 180.5 414.7 181.7 415.1 182.8C416 182.9 416.9 183 417.8 183.2C417.1 181.2 416.8 179.4 416.9 177.3C416.3 177.8 415.6 178.3 415 178.7C418.9 180.3 416.2 190.7 415.7 193.4C416.2 193 416.7 192.7 417.1 192.3C409.5 192.5 401.9 192.7 394.3 192.9C392.4 193 392.4 195.8 394.3 195.9C401 196.1 407.6 195.1 414.2 194.1C413.9 193.1 413.7 192.2 413.4 191.2C405.6 193.3 397.8 194.7 389.8 195.3C387.9 195.4 387.9 198.2 389.8 198.3C397.6 198.6 405.2 195.9 413 196.2C412.9 195.2 412.7 194.2 412.6 193.3C406.6 195.3 400.6 195.9 394.3 195.2V198.2C401.5 197.5 408.7 196.8 415.9 196.1C415.8 195.1 415.6 194.1 415.5 193.2C410.7 194.6 406 195.1 401 194.9V197.9C405.9 197.9 410.6 197.3 415.3 196.1C417.2 195.6 416.4 192.8 414.5 193.2C408.9 194.4 403.3 195 397.6 195V198C404.4 197.1 411.2 196 418 194.6C419.6 194.3 419.3 191.5 417.6 191.7C411.1 192.5 404.7 192.4 398.3 191.4C396.4 191.1 395.6 194 397.5 194.3C404.2 195.3 410.9 195.5 417.6 194.7C417.5 193.7 417.3 192.7 417.2 191.8C410.7 193.1 404.2 194.3 397.6 195.1C395.7 195.3 395.6 198.1 397.6 198.1C403.6 198.1 409.4 197.5 415.3 196.2C415 195.2 414.8 194.3 414.5 193.3C410 194.4 405.6 195 401 195C399.1 195 399.1 197.9 401 198C406.2 198.2 411.2 197.6 416.3 196.2C417.9 195.7 417.6 193.1 415.9 193.3C408.7 194 401.5 194.7 394.3 195.4C392.4 195.6 392.4 198.2 394.3 198.4C400.9 199.1 407.2 198.4 413.4 196.4C415 195.9 414.7 193.5 413 193.5C405.2 193.2 397.6 195.9 389.8 195.6V198.6C398.1 198 406.2 196.6 414.2 194.4C416.1 193.9 415.3 191.2 413.4 191.5C407 192.5 400.7 193.4 394.3 193.2V196.2C401.9 196 409.5 195.8 417.1 195.6C417.7 195.6 418.4 195.1 418.5 194.5C419.5 188.9 422.6 179 415.7 176.1C414.7 175.7 413.9 176.7 413.8 177.5C413.6 180 413.9 181.9 414.8 184.2C415.2 185.3 416.9 185.8 417.5 184.6C418.9 181.7 418.1 178.8 415.2 177.1C414 176.4 412.7 177.5 413 178.8C413.6 181.7 414.8 183.9 416.7 186.2C417.6 187.3 419.2 186.3 419.3 185.1C419.6 181.9 416.8 172.4 411.7 175.3C407.1 178 413.2 188.9 414.7 192C415.3 193.3 417 192.7 417.4 191.6C419.6 185.9 420.6 179.9 416 175.2C415.1 174.3 413.3 174.9 413.4 176.3C413.8 181.9 414.2 187.6 414.6 193.2C414.7 194.8 417.3 195.4 417.5 193.6C418.3 188.1 418.9 182.8 417.3 177.3C416.9 176 415.3 175.9 414.6 176.9C411.5 181.3 412.1 188.6 411.6 193.7C411.4 195.5 414 195.6 414.5 194.1C416.2 189.3 416.9 184.5 416.7 179.4C416.6 177.7 414.2 177.3 413.8 179C412.4 184.1 411.1 189.1 409.7 194.2C409.2 196.1 411.9 196.8 412.6 195C414.4 190.4 419.2 181.6 415.2 177C414.8 176.5 413.9 176.4 413.4 176.8C407.9 180.4 406.9 188.5 405.7 194.4C405.4 196 407.6 197.1 408.4 195.6C411.1 190.7 415.9 182.8 412.9 177.2C412.4 176.4 411.2 176.2 410.5 176.9C405.7 181.9 403.1 187.8 402.7 194.7C402.6 195.9 404.4 196.8 405.3 195.8C409.4 190.9 412 185.4 413.2 179.2C413.4 178 412.5 177.2 411.4 177.4C403.9 178.5 400.3 189.1 399.8 195.6C399.7 196.9 401.5 197.6 402.4 196.7C406.3 192 412.1 184.6 410.1 178.1C409.8 177.2 408.7 176.6 407.9 177.2C401.3 181.8 397.3 188.5 396.4 196.5C396.2 197.9 398.1 198.3 399 197.6C405.1 192.5 408.6 185.6 409.5 177.8C409.6 176.8 408.5 176.1 407.6 176.4C399.4 179 394 186.6 394.5 195.2C394.6 196.5 396.1 197.2 397.1 196.3C399.4 194 411.4 177.7 403.9 175.9C400.8 175.1 397.3 179.9 395.8 181.9C392.7 186 391.1 190.7 390.5 195.8C390.3 197.4 392.6 197.7 393.3 196.6C396.9 191.2 398.8 185.2 399.1 178.7C399.1 177.7 398.1 177 397.2 177.3C393.1 178.4 390.6 181.4 389.6 185.5C388.9 188.1 388.2 193 391 194.7C393.7 196.4 395.9 193.4 397.4 191.6C400.6 187.9 403.2 183.9 404 179C404.2 177.9 403 176.4 401.8 177.3C395.8 181.9 392.4 188.2 391.9 195.7C391.8 197 393.6 197.6 394.5 196.8C396.9 194.4 409.7 178.6 402.8 176C399.7 174.8 396.4 179.8 395 181.8C391.9 186.2 390.4 191.1 389.9 196.4C389.8 197.8 391.6 198.3 392.5 197.5C398.1 192.3 401.4 185.8 402.2 178.2C402.3 177.3 401.2 176.5 400.3 176.8C392.7 179.5 389.4 188.2 388.3 195.6C388.1 197 389.7 198.3 390.8 197.1C393.2 194.6 404.6 178.9 397.6 176.9C394.4 176 390.9 181.5 389.5 183.7C386.9 187.7 385.7 192.3 385.5 197C385.4 198.2 387.2 199.1 388.1 198.1C391.9 193.4 399.3 183.4 395.2 177.1C394.6 176.2 393.6 176.2 392.8 176.8C386.6 182 383 189.2 382.3 197.3C382.2 198.6 384 199.2 384.9 198.4C390.2 193.1 392.9 186.4 392.8 179C392.8 177.9 391.5 177.1 390.5 177.7C383.4 182.1 379.4 189.4 379.3 197.7C379.3 199 381 199.7 381.9 198.8C385.7 194.8 388.8 190 390.1 184.6C390.7 182.3 391.1 177.8 387.4 178C383.5 178.2 379.4 185 378 188C376.5 191.4 374.9 195.8 377.6 198.9C378.1 199.5 379.2 199.4 379.7 198.9C383.7 195 386.7 190.1 387.8 184.6C388.3 182.1 388.5 177.9 384.9 177.9C381.1 177.9 377 183.5 375.5 186.4C373.1 190.7 372.5 195.4 373.3 200.2C373.5 201.4 375.1 201.6 375.8 200.9C380.3 196.5 383.6 191 385 184.8C385.6 182.1 386.4 177.5 382.4 177.6C375.5 177.8 366 195.1 372.5 199.6C373 199.9 373.6 199.8 374 199.6C377.5 197.9 389.9 181.1 382.3 178.9C379.1 177.9 375.5 183.3 374.3 185.6C372 189.9 371.5 194.6 372.6 199.2C372.8 200.3 374.4 200.7 375.1 199.9C379.8 194.9 386.1 186 383.4 178.9C383.1 178 382.1 177.5 381.2 178C374.1 182.3 370.8 190.4 372.7 198.4C373 199.5 374.4 199.8 375.2 199.1C379.2 195.2 381.4 190.3 382.4 184.8C382.8 182.4 383.7 178 380.6 177C377.3 176 374.2 181.6 373.1 184C371.1 188.3 370.8 193 371.9 197.7C372.2 198.8 373.6 199.2 374.4 198.4C379.4 193 381.4 186.2 380 179C379.8 178.2 378.9 177.8 378.2 178C370.4 179.9 369.6 190.9 370.9 197.3C371.2 198.7 373 198.6 373.6 197.7C376.2 194 377.9 189.9 378.3 185.3C378.5 183.1 379.1 178.5 376.1 177.7C373.1 176.9 371.3 181.3 370.4 183.4C368.3 188.1 367.8 193.1 368.4 198.2C368.6 199.6 370.4 200.4 371.2 199C374.3 193.6 376.9 185.5 374.1 179.5C373.9 179 373.3 178.7 372.8 178.8C365.4 178.9 365.8 193 367.1 197.7C367.4 198.9 369.2 199.2 369.8 198.1C372.6 193.2 374.4 186 372 180.5C370.3 176.6 367.2 178.4 365.3 181.3C362.6 185.5 360.9 193.4 363.6 198C365.7 201.6 368.4 198.9 369.9 196.2C371.7 192.9 374.6 184.8 371.6 181.3C368.9 178.2 365.4 182.5 363.9 184.7C361.6 188.2 359.4 194.6 362.3 198.4C364.5 201.3 368.5 200.7 369.7 197.4C370.2 196.2 368.9 195.4 367.9 195.6C365.8 195.9 364.1 196.5 362.3 197.6C362.8 198.5 363.3 199.3 363.8 200.2C365.9 198.6 367.3 196.8 368.3 194.3C368.9 192.8 366.8 192 365.8 192.8C365.2 193.1 364.7 193.4 364.1 193.7C364.7 194.4 365.2 195.2 365.8 195.9C368.5 191.5 371.2 187 373.9 182.6C374.8 181.2 372.6 179.4 371.5 180.8C367.9 185.3 364.2 189.9 360.6 194.4C361.4 195 362.2 195.6 363 196.2C365 191.5 367 186.9 369 182.2C369.6 180.8 367.8 178.9 366.6 180.4C365.1 182.3 363.6 184.2 362 186.1C362.8 186.7 363.6 187.3 364.4 187.9C365.9 185.5 367 183.1 367.9 180.4C368.3 179 366.3 177.7 365.4 178.9C363.4 181.4 361.5 184 359.5 186.5C360.3 187.1 361.1 187.7 361.9 188.3C363.2 185.4 364.4 182.5 365.7 179.6C366.5 177.9 364.1 176.4 363.1 178.1C362 179.9 360.9 181.7 359.8 183.5C358.5 182.9 361.1 184.4 362.1 182.7V182.7Z" fill="#E8E8E8"/>
<path d="M416.4 174.2C416.4 177.6 416.5 181.1 416.6 184.5C416.7 187 417.8 192.3 416.2 194.2C415.2 195.4 416.5 197.5 418 196.6C418.7 196.1 418.9 196 419.5 195.4C420.1 194.6 420 193.2 418.8 192.9C417 192.5 415.7 192.5 413.9 193.1C412.1 193.7 412.8 196.6 414.7 196C415.8 195.9 416.9 195.9 418 195.8C417.8 195 417.6 194.1 417.3 193.3C417 193.6 416.7 193.8 416.5 194.1C417.1 194.9 417.7 195.7 418.3 196.5C420.5 193.9 419.9 192.1 419.7 188.6C419.5 183.9 419.4 179.1 419.4 174.4C419.4 172.2 416.4 172.2 416.4 174.2V174.2Z" fill="#E8E8E8"/>
<path d="M438.3 476.6C418.9 469.1 407.4 447.6 409.3 427.2C411.3 406.5 426.7 388.8 445.2 380.5C457.9 374.8 471.9 373.6 484.4 380.3C494.2 385.5 502.6 393.5 508.5 402.9C520.8 422.5 519.9 446.2 506.9 465.4C499.1 476.9 484.4 480.2 471.5 482.2C458.7 484.2 445.2 483.5 434.4 475.6C432.8 474.5 431.3 477.1 432.9 478.2C442.9 485.5 455.2 487 467.2 485.8C479.1 484.6 493.2 482 502.8 474.4C512.3 466.9 518 452.7 520 441.1C521.9 430 519.8 418.8 515.1 408.6C504.6 385.9 480.4 367.7 454.7 374C432.5 379.4 412.9 397.3 407.5 419.8C401.7 443.7 414.2 470.4 437.4 479.4C439.3 480.2 440.1 477.3 438.3 476.6V476.6Z" fill="#E8E8E8"/>
<path d="M459.4 374.5C460.6 393 461.8 411.5 463.1 430C463.2 431.9 466.2 431.9 466.1 430C464.9 411.5 463.7 393 462.4 374.5C462.3 372.6 459.3 372.6 459.4 374.5Z" fill="#E8E8E8"/>
<path d="M465.9 431.8C481.1 423.5 496.1 414.8 510.9 405.6C512.5 404.6 511 402 509.4 403C494.7 412.2 479.7 420.9 464.4 429.2C462.7 430.2 464.2 432.8 465.9 431.8Z" fill="#E8E8E8"/>
<path d="M466.5 432.3C483.7 432.3 500.7 436.4 517.6 439.3C519.5 439.6 520.3 436.7 518.4 436.4C501.3 433.5 484 429.3 466.5 429.3C464.6 429.3 464.6 432.3 466.5 432.3Z" fill="#E8E8E8"/>
<path d="M463.9 430.3C454.3 446.2 444.7 462 435 477.9C434 479.6 436.6 481.1 437.6 479.4C447.2 463.5 456.8 447.7 466.5 431.8C467.5 430.2 464.9 428.6 463.9 430.3Z" fill="#E8E8E8"/>
<path d="M293.6 572C337.1 568.7 380.5 564.9 423.8 560.4C425.7 560.2 425.7 557.2 423.8 557.4C380.4 561.8 337 565.7 293.6 569C291.7 569.2 291.7 572.2 293.6 572Z" fill="#E8E8E8"/>
<path d="M308.4 498.3C310 521.3 311.7 544.4 313.3 567.4C313.4 569.3 316.4 569.3 316.3 567.4C314.7 544.4 313 521.3 311.4 498.3C311.2 496.4 308.2 496.4 308.4 498.3V498.3Z" fill="#E8E8E8"/>
<path d="M311.3 498.6C317 497.6 322.7 497.3 328.5 497.6C328 497.1 327.5 496.6 327 496.1C328.5 519.5 330.7 542.8 333.4 566C333.6 567.9 336.6 567.9 336.4 566C333.6 542.8 331.5 519.4 330 496.1C329.9 495.3 329.4 494.6 328.5 494.6C322.4 494.3 316.5 494.7 310.5 495.7C308.6 496.1 309.5 499 311.3 498.6Z" fill="#E8E8E8"/>
<path d="M342.8 522C345.1 535.9 346.5 550 347 564.1C347.1 566 350.1 566 350 564.1C349.5 549.7 348.1 535.4 345.7 521.2C345.4 519.3 342.5 520.1 342.8 522Z" fill="#E8E8E8"/>
<path d="M346.4 523.5C352.2 523.5 357.9 523.2 363.6 522.4C363.1 521.9 362.6 521.4 362.1 520.9C363.5 534.8 365 548.6 366.4 562.5C366.6 564.4 369.6 564.4 369.4 562.5C368 548.6 366.5 534.8 365.1 520.9C365 520.2 364.5 519.3 363.6 519.4C357.9 520.1 352.1 520.5 346.4 520.5C344.5 520.5 344.5 523.5 346.4 523.5Z" fill="#E8E8E8"/>
<path d="M378.4 498.1C380.8 519.7 382.3 541.3 382.9 563.1C383 565 386 565 385.9 563.1C385.2 541.4 383.7 519.7 381.4 498.1C381.2 496.2 378.2 496.2 378.4 498.1Z" fill="#E8E8E8"/>
<path d="M379.9 499.3C383.1 499.5 386.4 499.6 389.6 499.8C394.1 500 394.2 500.1 394.3 504.6C394.6 511.1 394.9 517.5 395.3 524C396.2 536.4 397.6 548.7 399.9 560.9C400.3 562.8 403.1 562 402.8 560.1C399.9 544.7 398.5 529 397.7 513.3C397.5 509.7 397.4 506.2 397.2 502.6C397.1 501.2 397.3 499.1 396.2 497.9C395 496.7 392.9 496.9 391.4 496.8C387.5 496.6 383.7 496.4 379.8 496.2C378 496.2 378 499.2 379.9 499.3V499.3Z" fill="#E8E8E8"/>
<path d="M418.8 593.3C457.4 590.6 495.9 585.7 533.9 578.6C535.8 578.2 535 575.4 533.1 575.7C495.3 582.8 457.1 587.6 418.8 590.3C416.8 590.4 416.8 593.4 418.8 593.3Z" fill="#E8E8E8"/>
<path d="M477.6 574.2C494 572.5 510.5 570.8 526.9 569.1C528.8 568.9 528.8 565.9 526.9 566.1C510.5 567.8 494 569.5 477.6 571.2C475.7 571.4 475.7 574.4 477.6 574.2V574.2Z" fill="#E8E8E8"/>
<path d="M505.6 554.2C513.1 553.9 520.7 553.6 528.2 553.3C530.1 553.2 530.1 550.2 528.2 550.3C520.7 550.6 513.1 550.9 505.6 551.2C503.6 551.3 503.6 554.3 505.6 554.2Z" fill="#E8E8E8"/>
<path d="M426.4 217.9C428.3 223.4 429.1 229 428.8 234.8C428.7 236.7 431.7 236.7 431.8 234.8C432.1 228.7 431.3 222.9 429.3 217.1C428.6 215.3 425.7 216.1 426.4 217.9V217.9Z" fill="#E8E8E8"/>
<path d="M428.9 218.2C456.4 215.4 483.9 213.6 511.5 212.7C513.4 212.6 513.4 209.6 511.5 209.7C483.9 210.6 456.3 212.4 428.9 215.2C427 215.4 427 218.4 428.9 218.2Z" fill="#E8E8E8"/>
<path d="M431.8 236.4C459.2 234.4 486.5 232.4 513.9 230.4C515.8 230.3 515.8 227.3 513.9 227.4C486.5 229.4 459.2 231.4 431.8 233.4C429.9 233.5 429.9 236.5 431.8 236.4V236.4Z" fill="#E8E8E8"/>
<path d="M511.9 213.2C512.8 219.4 513.7 225.5 514.6 231.7C514.9 233.6 517.8 232.8 517.5 230.9C516.6 224.7 515.7 218.6 514.8 212.4C514.5 210.5 511.6 211.3 511.9 213.2Z" fill="#E8E8E8"/>
<path d="M995.5 294.6C995.6 298.4 995.8 302.1 996.3 305.9C996.6 307.8 999.6 307.8 999.3 305.9C998.8 302.2 998.5 298.4 998.5 294.6C998.5 292.7 995.5 292.7 995.5 294.6Z" fill="#E8E8E8"/>
<path d="M997.7 296.1H1191.8C1193.7 296.1 1193.7 293.1 1191.8 293.1C1127.1 293.1 1062.4 293.1 997.7 293.1C995.8 293.1 995.8 296.1 997.7 296.1V296.1Z" fill="#E8E8E8"/>
<path d="M1190 295.8V302.4C1190 304.3 1193 304.3 1193 302.4C1193 300.2 1193 298 1193 295.8C1193 293.8 1190 293.8 1190 295.8Z" fill="#E8E8E8"/>
<path d="M999.5 307H1191.1C1193 307 1193 304 1191.1 304C1127.2 304 1063.3 304 999.5 304C997.5 304 997.5 307 999.5 307V307Z" fill="#E8E8E8"/>
<path d="M999.2 260.1C1001.7 271.4 1003.8 282.8 1005.5 294.2C1005.8 296.1 1008.7 295.3 1008.4 293.4C1006.6 282 1004.5 270.6 1002.1 259.3C1001.6 257.4 998.8 258.2 999.2 260.1Z" fill="#E8E8E8"/>
<path d="M1001 259.9C1014.1 260.3 1027.8 261.9 1040.9 260.3C1042.8 260.1 1042.8 257.1 1040.9 257.3C1027.8 258.9 1014.1 257.3 1001 256.9C999.1 256.8 999.1 259.8 1001 259.9V259.9Z" fill="#E8E8E8"/>
<path d="M1039.4 260.9C1038 271.7 1036.7 282.5 1035.3 293.4C1035.1 295.3 1038.1 295.3 1038.3 293.4C1039.7 282.6 1041 271.8 1042.4 260.9C1042.6 259 1039.6 259 1039.4 260.9Z" fill="#E8E8E8"/>
<path d="M1015.9 256.6C1013.9 255.7 1011.5 254.8 1010 253.2C1007.4 250.6 1007.6 247.1 1007.2 243.7C1006.6 239.2 1004.1 235.2 1003.8 230.6C1003 231 1002.3 231.5 1001.5 231.9C1010.8 237.9 1019 246.4 1018.7 258.2C1018.6 260.1 1021.6 260.1 1021.7 258.2C1022.1 245.3 1013.2 235.9 1003 229.3C1002.1 228.7 1000.7 229.5 1000.7 230.6C1000.9 233.3 1001.7 235.7 1002.6 238.3C1003.9 241.9 1003.9 245.4 1004.6 249.1C1005.7 254.6 1009.5 257 1014.3 259.2C1016.1 259.9 1017.6 257.4 1015.9 256.6V256.6Z" fill="#E8E8E8"/>
<path d="M1018.8 243.8C1017.7 236.2 1022.7 228.9 1025.5 222.2C1027.7 216.9 1029.3 211.5 1029 205.7C1028 205.8 1027 206 1026.1 206.1C1029.8 223.4 1034.4 239.8 1026.5 256.8C1025.7 258.5 1028.3 260.1 1029.1 258.3C1032.7 250.5 1034.6 242.1 1034.2 233.5C1033.7 224 1031 214.6 1029 205.3C1028.7 203.6 1026 204 1026.1 205.7C1026.7 219.6 1013.9 230.8 1016 244.6C1016.2 246.5 1019.1 245.7 1018.8 243.8V243.8Z" fill="#E8E8E8"/>
<path d="M1067.7 185.9C1068.9 222.3 1069.3 258.6 1068.6 295C1068.6 296.9 1071.6 296.9 1071.6 295C1072.2 258.6 1071.9 222.2 1070.7 185.9C1070.7 183.9 1067.7 183.9 1067.7 185.9Z" fill="#E8E8E8"/>
<path d="M1070 186.4C1074.3 182.8 1081.6 184.4 1086.4 185.9C1088.2 186.5 1089 183.6 1087.2 183C1081.1 181.1 1073.1 179.9 1067.9 184.3C1066.4 185.5 1068.5 187.6 1070 186.4Z" fill="#E8E8E8"/>
<path d="M1085.2 185.9C1085.4 221.8 1085.6 257.6 1085.8 293.5C1085.8 295.4 1088.8 295.4 1088.8 293.5C1088.6 257.6 1088.4 221.8 1088.2 185.9C1088.2 183.9 1085.2 183.9 1085.2 185.9Z" fill="#E8E8E8"/>
<path d="M1072.2 210.1C1076.2 206.8 1082.1 207.1 1085.8 210.6C1087.2 211.9 1089.3 209.8 1087.9 208.5C1082.9 203.8 1075.3 203.7 1070.1 208C1068.6 209.2 1070.7 211.3 1072.2 210.1V210.1Z" fill="#E8E8E8"/>
<path d="M1070.9 198.6C1075.3 194.8 1081.6 194.7 1086.2 198.2C1087.8 199.4 1089.2 196.7 1087.7 195.6C1081.9 191.3 1074.1 191.9 1068.7 196.5C1067.3 197.8 1069.5 199.9 1070.9 198.6Z" fill="#E8E8E8"/>
<path d="M1088.3 211.6C1092.8 211.6 1097.2 212.1 1101.6 213.2C1101.2 212.7 1100.9 212.2 1100.5 211.8C1101.1 238.8 1100.8 265.7 1099.4 292.7C1099.3 294.6 1102.3 294.6 1102.4 292.7C1103.8 265.8 1104.1 238.8 1103.5 211.8C1103.5 211.2 1103 210.5 1102.4 210.4C1097.7 209.2 1093.1 208.7 1088.3 208.7C1086.3 208.6 1086.3 211.6 1088.3 211.6V211.6Z" fill="#E8E8E8"/>
<path d="M1089 240C1093 237.4 1097.8 237.3 1101.9 239.7C1103.6 240.7 1105.1 238.1 1103.4 237.1C1098.4 234.1 1092.3 234.2 1087.5 237.4C1085.9 238.4 1087.4 241 1089 240Z" fill="#E8E8E8"/>
<path d="M1088.5 225.7C1092 224 1096 223.9 1099.6 225.4C1101.4 226.1 1102.9 223.6 1101.1 222.8C1096.4 220.8 1091.6 220.9 1087 223.1C1085.3 224 1086.8 226.6 1088.5 225.7Z" fill="#E8E8E8"/>
<path d="M1110.1 293C1110.1 291.3 1109 285.1 1110 283.9C1111.4 282.2 1119.1 282.8 1121.1 282.7C1128 282.3 1135 282 1141.9 281.9C1155.8 281.7 1169.7 282.2 1183.5 283.3C1183 282.8 1182.5 282.3 1182 281.8C1182.6 286.3 1182.9 290.8 1182.8 295.4C1182.8 297.3 1185.8 297.3 1185.8 295.4C1185.8 290.8 1185.6 286.3 1185 281.8C1184.9 280.9 1184.4 280.4 1183.5 280.3C1166.4 279 1149.1 278.6 1132 279.2C1128 279.3 1124.1 279.5 1120.1 279.8C1117.2 280 1111.8 279.4 1109.1 280.7C1105.2 282.5 1107 289.8 1107.1 293.1C1107.1 294.9 1110.1 295 1110.1 293V293Z" fill="#E8E8E8"/>
<path d="M1120.4 279.3C1120.2 278.2 1119.2 274.9 1119.4 273.8C1120.1 270.8 1123 271.5 1125.2 271.5C1128.8 271.4 1132.5 271.4 1136.1 271.3C1143.7 271.2 1151.3 271 1159 270.9C1166.3 270.8 1173.6 270.6 1180.9 270.5C1184.9 270.4 1188.9 270.4 1192.8 270.3C1195.6 270.3 1197.2 269.3 1198.1 272.9C1198.5 274.5 1198.2 276.6 1198.1 278.2C1198 280.1 1201 280.1 1201.1 278.2C1201.2 275.6 1202 270.5 1199.9 268.3C1198 266.4 1194.1 267.3 1191.8 267.4C1180.5 267.6 1169.3 267.8 1158 268C1147.1 268.2 1136.1 268.4 1125.2 268.6C1123 268.6 1118.3 267.7 1116.7 269.7C1114.8 272 1117.1 277.7 1117.5 280.2C1117.9 282 1120.8 281.2 1120.4 279.3V279.3Z" fill="#E8E8E8"/>
<path d="M1182.9 283.2C1187.4 283.3 1192 283.4 1196.5 283.1C1198.7 282.9 1200.9 282.1 1200.7 279.5C1200.5 277.6 1197.5 277.6 1197.7 279.5C1197.8 280.6 1184.2 280.3 1182.9 280.2C1181 280.1 1181 283.1 1182.9 283.2V283.2Z" fill="#E8E8E8"/>
<path d="M1129.2 269.2C1129.1 267.5 1128.6 265.2 1128.8 263.5C1129 261.5 1128.5 261.2 1130.8 260.9C1134 260.5 1138.1 261.6 1141.3 261.8C1148 262.3 1154.8 262.6 1161.5 262.7C1168.2 262.8 1175 262.8 1181.7 262.5C1184.7 262.4 1188.3 261.6 1191.3 262C1192.7 261.4 1193.8 261.8 1194.5 263.1C1195.6 263.6 1196 264.5 1195.9 265.6C1196.2 266.4 1196.3 267.4 1196.6 268.3C1197.3 270.1 1200.2 269.3 1199.5 267.5C1198.6 265.3 1199.2 262 1197.4 260.1C1195.8 258.4 1193.5 258.8 1191.3 258.9C1181.4 259.4 1171.4 259.7 1161.5 259.6C1151.9 259.4 1142.3 258.9 1132.7 258C1130.7 257.8 1127.6 257 1126.2 259C1124.6 261.4 1126 266.5 1126.2 269.1C1126.4 271.1 1129.4 271.1 1129.2 269.2V269.2Z" fill="#E8E8E8"/>
<path d="M1205.9 368.2V412.7C1205.9 414.6 1208.9 414.6 1208.9 412.7C1208.9 397.9 1208.9 383 1208.9 368.2C1208.9 366.3 1205.9 366.3 1205.9 368.2Z" fill="#E8E8E8"/>
<path d="M1208.4 368.2H1286.4C1288.3 368.2 1288.3 365.2 1286.4 365.2C1260.4 365.2 1234.4 365.2 1208.4 365.2C1206.5 365.2 1206.5 368.2 1208.4 368.2Z" fill="#E8E8E8"/>
<path d="M1285 367.2V411.7C1285 413.6 1288 413.6 1288 411.7C1288 396.9 1288 382 1288 367.2C1288 365.3 1285 365.3 1285 367.2Z" fill="#E8E8E8"/>
<path d="M1207.4 415.2H1285.4C1287.3 415.2 1287.3 412.2 1285.4 412.2C1259.4 412.2 1233.4 412.2 1207.4 412.2C1205.5 412.2 1205.5 415.2 1207.4 415.2Z" fill="#E8E8E8"/>
<path d="M1241.4 365.2C1241.4 362.6 1241.6 360.2 1242.3 357.7C1242.6 356.6 1243 354.9 1243.7 354.1C1244 353.1 1244.7 352.8 1245.9 353.2C1247.5 352.5 1248.3 353 1248.4 354.8C1249.6 359 1249.8 363.8 1250.4 368.2C1250.7 370.1 1253.6 369.3 1253.3 367.4C1252.7 363 1252.5 358.3 1251.3 354C1250.7 351.6 1248.9 349.1 1246.2 348.9C1239.5 348.5 1238.3 360.7 1238.3 365.2C1238.5 367.1 1241.5 367.1 1241.4 365.2V365.2Z" fill="#E8E8E8"/>
<path d="M1210.8 374.7V407.7C1210.8 409.6 1213.8 409.6 1213.8 407.7C1213.8 396.7 1213.8 385.7 1213.8 374.7C1213.8 372.8 1210.8 372.8 1210.8 374.7Z" fill="#E8E8E8"/>
<path d="M1213.9 374.7H1281.9C1283.8 374.7 1283.8 371.7 1281.9 371.7C1259.2 371.7 1236.5 371.7 1213.9 371.7C1212 371.7 1212 374.7 1213.9 374.7Z" fill="#E8E8E8"/>
<path d="M1280 373.7V408.7C1280 410.6 1283 410.6 1283 408.7C1283 397 1283 385.4 1283 373.7C1283 371.8 1280 371.8 1280 373.7Z" fill="#E8E8E8"/>
<path d="M1212.9 409.2H1277.9C1279.8 409.2 1279.8 406.2 1277.9 406.2C1256.2 406.2 1234.5 406.2 1212.9 406.2C1211 406.2 1211 409.2 1212.9 409.2Z" fill="#E8E8E8"/>
<path d="M1215.7 395.9C1217.9 392.7 1219.9 392 1221.6 393.6C1221.9 393.8 1222.1 394 1222.4 394.2C1223.1 394.5 1223.6 395 1224.3 395.2C1225.5 395.6 1226.9 395.5 1228.1 395C1229 394.6 1229.8 393.9 1230.1 392.9C1230.6 391.3 1229.4 391 1229.3 389.6C1228.8 389 1229 388.4 1229.9 387.6C1230.1 385.3 1231.5 384.8 1233.9 386.2C1234.5 386.2 1235.1 386.4 1235.6 386.3C1237.4 386 1237.6 385.4 1238.9 384.3C1243.1 380.9 1247.8 382.6 1248.9 388C1249 388.7 1249.5 393.3 1248.7 393.8C1247.9 392.8 1247.1 391.9 1246.3 390.9C1248.9 391.3 1250.8 392.7 1251.9 394.9C1252.5 395.9 1253.8 395.8 1254.5 394.9C1256.5 392.8 1258.5 392.7 1260.5 394.7C1261.2 394 1261.9 393.3 1262.6 392.6C1261.8 391.9 1261.1 391.2 1260.3 390.5C1257.7 388.3 1257.9 385.8 1261 382.9C1265.2 383.1 1267.4 387.2 1265.6 390.9C1263.3 395.4 1257.8 396 1253.3 395.6V398.6C1259.8 399 1266.4 399.4 1272.9 399.8C1274.8 399.9 1274.8 396.9 1272.9 396.8C1266.4 396.4 1259.8 396 1253.3 395.6C1251.4 395.5 1251.4 398.4 1253.3 398.6C1258.5 399.1 1264.2 398.1 1267.5 393.5C1270.1 389.8 1269.9 384.2 1266.1 381.3C1263.2 379.1 1258.8 379.5 1256.4 382.4C1252.8 386.9 1257 391.8 1260.4 394.8C1261.8 396.1 1263.9 394.1 1262.5 392.7C1259.3 389.3 1254.4 389.9 1251.8 393.5H1254.4C1251.9 389.4 1247.2 386.4 1242.5 388.9C1238.9 390.9 1237.6 396.1 1240.9 399.1C1244.3 402.2 1249.2 399.8 1251 396.3C1253 392.3 1252.6 386 1249.7 382.4C1246.8 378.8 1241.7 378.4 1238.1 381.1C1235.6 383 1237.1 383.3 1232.9 383C1231.5 382.9 1230.3 382.6 1228.9 383C1227.4 383.4 1226 384.3 1225.3 385.8C1224.8 386.9 1224.6 387.9 1225.1 389.1C1225.2 389.5 1226.3 390.4 1226.2 390.7C1225.8 392.9 1220 388.9 1219 388.7C1214.5 388 1211.5 392.8 1212.8 396.7C1213.4 398.5 1216.3 397.8 1215.7 395.9V395.9Z" fill="#E8E8E8"/>
<path d="M1301.4 311.4V345.8C1301.4 347.7 1304.4 347.7 1304.4 345.8C1304.4 334.3 1304.4 322.9 1304.4 311.4C1304.4 309.5 1301.4 309.5 1301.4 311.4Z" fill="#E8E8E8"/>
<path d="M1304.6 311.2H1359.8C1361.7 311.2 1361.7 308.2 1359.8 308.2C1341.4 308.2 1323 308.2 1304.6 308.2C1302.6 308.2 1302.6 311.2 1304.6 311.2Z" fill="#E8E8E8"/>
<path d="M1303.7 348.2H1358.9C1360.8 348.2 1360.8 345.2 1358.9 345.2C1340.5 345.2 1322.1 345.2 1303.7 345.2C1301.8 345.2 1301.8 348.2 1303.7 348.2Z" fill="#E8E8E8"/>
<path d="M1358.3 311V346.3C1358.3 348.2 1361.3 348.2 1361.3 346.3C1361.3 334.5 1361.3 322.8 1361.3 311C1361.3 309 1358.3 309 1358.3 311Z" fill="#E8E8E8"/>
<path d="M1304.8 312.7V345.4C1304.8 347.3 1307.8 347.3 1307.8 345.4C1307.8 334.5 1307.8 323.6 1307.8 312.7C1307.8 310.7 1304.8 310.7 1304.8 312.7Z" fill="#E8E8E8"/>
<path d="M1305.9 345.6H1358.6C1360.5 345.6 1360.5 342.6 1358.6 342.6C1341 342.6 1323.5 342.6 1305.9 342.6C1303.9 342.6 1303.9 345.6 1305.9 345.6Z" fill="#E8E8E8"/>
<path d="M1306.7 313.3H1357.7C1359.6 313.3 1359.6 310.3 1357.7 310.3C1340.7 310.3 1323.7 310.3 1306.7 310.3C1304.8 310.3 1304.8 313.3 1306.7 313.3Z" fill="#E8E8E8"/>
<path d="M1357 312.2V343.6C1357 345.5 1360 345.5 1360 343.6C1360 333.1 1360 322.6 1360 312.2C1360 310.3 1357 310.3 1357 312.2Z" fill="#E8E8E8"/>
<path d="M1316.4 337.7C1324.7 333.7 1334.1 331.8 1342.5 336.7C1344.2 337.7 1345.7 335.1 1344 334.1C1334.7 328.6 1324.2 330.6 1314.9 335.1C1313.1 335.9 1314.7 338.5 1316.4 337.7Z" fill="#E8E8E8"/>
<path d="M1316.4 333.5C1314.6 331.3 1319.2 330.6 1319.8 329.4C1320.3 328.5 1319.6 325.7 1319.9 325.8C1320.8 326 1321.8 325.4 1321.8 324.4C1321.7 319.7 1326.8 327.2 1326.6 326.9C1327.2 327.6 1327.8 328.3 1328.8 328.7C1330.2 329.3 1333.2 327.7 1334 328.3C1334.9 329.1 1336.1 328.7 1336.5 327.6C1337.3 327.3 1338.1 327 1339 326.8C1338.9 328.1 1340.7 328.8 1341.6 327.9C1344.3 330 1344.7 331.7 1342.7 332.9C1341.2 334.2 1343.4 336.3 1344.8 335C1347.4 332.8 1349.2 329 1346.8 325.9C1344.8 323.3 1341.5 323.5 1339.4 325.8C1340.3 326.2 1341.1 326.5 1342 326.9C1342.2 324.7 1340.9 322.9 1338.5 322.7C1335.9 322.5 1334.4 324.7 1333.6 326.9C1334.4 326.7 1335.3 326.5 1336.1 326.2C1334.4 324.8 1334.1 325.4 1332.2 325.3C1327.1 325.1 1328.6 321.9 1325.3 320C1322 318.1 1318.8 321 1318.8 324.4C1319.4 323.9 1320.1 323.4 1320.7 323C1319.2 322.7 1317.4 322.6 1316.4 323.9C1315.3 325.3 1317 326.4 1316.6 327.4C1316 329 1313.1 328.5 1312.4 330.6C1311.7 332.6 1313.1 334.4 1314.3 335.8C1315.5 337.2 1317.6 335 1316.4 333.5V333.5Z" fill="#E8E8E8"/>
<path d="M1328.4 307.2C1327.8 305.9 1327.5 304.6 1327.8 303.2C1327.9 302.3 1328.7 299.4 1330.1 299.8C1331.1 300.1 1332.1 302.7 1332.3 303.6C1332.8 305.2 1332.9 306.7 1332.7 308.4C1332.5 310.3 1335.5 310.3 1335.7 308.4C1336 305.7 1335.6 303.1 1334.3 300.7C1333.3 298.7 1331.4 296 1328.8 296.8C1326.8 297.4 1325.5 299.9 1325 301.8C1324.4 304.2 1324.7 306.6 1325.8 308.8C1326.7 310.5 1329.2 309 1328.4 307.2V307.2Z" fill="#E8E8E8"/>
<path d="M1305.8 362.9V408.8C1305.8 410.7 1308.8 410.7 1308.8 408.8C1308.8 393.5 1308.8 378.2 1308.8 362.9C1308.8 360.9 1305.8 360.9 1305.8 362.9Z" fill="#E8E8E8"/>
<path d="M1307.3 361.8H1353.8C1355.7 361.8 1355.7 358.8 1353.8 358.8C1338.3 358.8 1322.8 358.8 1307.3 358.8C1305.3 358.8 1305.3 361.8 1307.3 361.8Z" fill="#E8E8E8"/>
<path d="M1352.3 360.3V408.7C1352.3 410.6 1355.3 410.6 1355.3 408.7C1355.3 392.6 1355.3 376.4 1355.3 360.3C1355.3 358.4 1352.3 358.4 1352.3 360.3Z" fill="#E8E8E8"/>
<path d="M1308.5 412.2H1352.5C1354.4 412.2 1354.4 409.2 1352.5 409.2C1337.8 409.2 1323.2 409.2 1308.5 409.2C1306.6 409.2 1306.6 412.2 1308.5 412.2Z" fill="#E8E8E8"/>
<path d="M1322.2 378.2C1321.5 384 1325.2 390.3 1331.4 391C1337.9 391.7 1342.7 386.7 1342.5 380.4C1342.4 378.5 1339.4 378.5 1339.5 380.4C1339.7 385.1 1336.1 388.9 1331.2 387.9C1326.7 387 1324.8 382.4 1325.2 378.2C1325.4 376.3 1322.4 376.3 1322.2 378.2Z" fill="#E8E8E8"/>
<path d="M1332.3 390.3C1332.1 391.7 1333 392.8 1332.6 394.1C1332 396.1 1329.4 398 1328.1 399.5C1325.9 402.1 1324.3 404.7 1324.2 408.2C1324.1 410.1 1327.1 410.1 1327.2 408.2C1327.4 403.6 1331.3 400.9 1333.9 397.5C1334.7 396.5 1335.5 395.4 1335.8 394.2C1336.1 392.8 1335.1 391.7 1335.3 390.3C1335.5 388.4 1332.5 388.4 1332.3 390.3Z" fill="#E8E8E8"/>
<path d="M1325.4 390.2C1321.9 390 1315.3 387.8 1316.9 382.9C1317.7 380.3 1321 380.2 1322.4 378.4C1324.3 376.1 1322.7 374.8 1321.2 373.1C1319.8 371.5 1316.9 370.9 1320.8 367.4C1323 365.4 1326.6 367.9 1328.4 369.4C1329.5 370.4 1329.7 371.5 1331.2 372.2C1332.2 372.7 1333.5 372.9 1334.6 372.5C1336.4 371.7 1338.4 366.4 1340.3 373C1340.5 373.8 1341.4 374.3 1342.1 374C1342.2 376.1 1342.3 378.1 1342.3 380.2C1341.1 381.7 1343.2 383.8 1344.4 382.3C1346.3 379.9 1348.5 376.9 1347.1 373.7C1346 371.3 1343.6 370.4 1341.2 371.1C1341.8 371.4 1342.4 371.8 1343 372.1C1342.2 369.4 1340.9 366.6 1337.8 366.4C1336.8 366.3 1335.9 366.5 1335.1 367C1335.3 366.9 1333.9 368.5 1333.9 368.5C1331.8 369.6 1331.2 367.7 1330 366.5C1327.9 364.2 1326.2 362.9 1322.8 363.4C1320.2 363.8 1316.5 365.6 1315.6 368.3C1314.5 371.5 1317.2 372.4 1318.4 374.8C1319.7 375.3 1319.7 375.9 1318.3 376.6C1318 377.2 1317.6 377.5 1317.1 377.7C1316.7 378 1316.1 378.2 1315.7 378.6C1314.9 379.5 1314.3 380.4 1313.9 381.5C1311.6 388.8 1319.1 392.7 1325.1 393.1C1327.3 393.3 1327.3 390.3 1325.4 390.2V390.2Z" fill="#E8E8E8"/>
<path d="M1326.5 360C1326.4 358.5 1325.9 355.8 1327.7 354.9C1329.6 354 1329.3 356.9 1329.1 357.9C1328.7 359.8 1331.6 360.6 1332 358.7C1332.3 357.1 1332.5 355.3 1331.7 353.8C1330.9 352.4 1329.4 351.6 1327.9 351.8C1323.8 352.3 1323.3 356.7 1323.6 360C1323.6 361.9 1326.6 361.9 1326.5 360V360Z" fill="#E8E8E8"/>
<path d="M1309.5 362.6V406.7C1309.5 408.6 1312.5 408.6 1312.5 406.7C1312.5 392 1312.5 377.3 1312.5 362.6C1312.5 360.6 1309.5 360.6 1309.5 362.6Z" fill="#E8E8E8"/>
<path d="M1311.3 408.9H1351.2C1353.1 408.9 1353.1 405.9 1351.2 405.9C1337.9 405.9 1324.6 405.9 1311.3 405.9C1309.4 405.9 1309.4 408.9 1311.3 408.9Z" fill="#E8E8E8"/>
<path d="M1352.3 407.8C1352.3 392.4 1352.3 376.9 1352.3 361.5C1352.3 359.6 1349.3 359.6 1349.3 361.5V407.8C1349.3 409.7 1352.3 409.7 1352.3 407.8Z" fill="#E8E8E8"/>
<path d="M1312 363H1351.5C1353.4 363 1353.4 360 1351.5 360C1338.3 360 1325.2 360 1312 360C1310.1 360 1310.1 363 1312 363Z" fill="#E8E8E8"/>
<path d="M753.2 903.4C746.5 898 737.4 896.9 730 900.6C721.3 905 716.6 915.3 718.8 925.6C720.6 939.3 722.4 953.1 724.2 966.8C687.7 983.5 670.3 994.4 671.8 999.4C673.6 1005.5 703.2 1002.9 760.7 991.8C758.2 962.3 755.7 932.9 753.2 903.4V903.4Z" fill="#191919"/>
<path d="M728.8 578.8C727.4 598.9 725.1 631.5 721.2 671.9C716.4 722.6 714.4 773.7 707.6 824.2C700.6 876.6 692.9 912.5 710.6 925C717 929.5 724.7 929.5 730.2 928.8C736 927.3 741.8 925.7 747.6 924.2C753.3 927 761 929.7 767.2 926.5C785.4 917.2 768.2 869.5 769.5 801.1C770.4 756 779.1 711 790.7 651.9C799.5 606.8 806.2 583.4 793.7 571.9C778.5 557.8 744.8 571.3 728.8 578.8V578.8Z" fill="white" stroke="#161616" stroke-width="2" stroke-miterlimit="10"/>
<path opacity="0.14" d="M757.5 569.4C761.3 587.1 765.6 613.9 765.3 646.5C764.8 699.1 752.5 732.3 743.6 771.8C735.5 807.6 727.7 859.8 731.2 927.1C736.5 926.1 741.9 925 747.2 924C748.4 924.9 753.3 928.2 760.1 927.6C761.1 927.5 767.7 926.8 772 921.9C777.3 915.9 776.2 907 775.6 902.7C773.3 884 772.8 865.1 770.9 846.3C768.9 826.5 769.2 811.1 769.3 801.8C769.4 794.8 769.9 781.7 772.4 760.4C776.8 723.3 780.8 717 789.5 663.1C796.1 622.5 793.2 629.9 795.7 620.7C798 612.5 801.9 600.6 799.8 585.5C798.8 578.4 797 574.4 794.1 571.5C788.1 565.6 779.2 565.7 773.9 565.8C766.8 565.9 761 567.9 757.5 569.4V569.4Z" fill="#6D6C6C"/>
<path opacity="0.1" d="M786 671.4C778.5 688 770.6 709.8 765.8 736.1C757.4 782.5 765.7 806.1 758.6 855.7C756 874 751.1 897 741.5 923C745.1 923.5 748.7 924 752.4 924.6C757.8 926.5 764.6 927.9 769.5 924.6C778.3 918.7 775.3 901.4 773.1 881.1C773.1 881.1 770.4 856.1 770 808.6C769.8 782.3 772.2 762.9 775.7 734.6C778.8 709.2 782.6 687.7 786 671.4V671.4Z" fill="#6D6C6C"/>
<path d="M879.4 895.8C872.7 890.4 863.6 889.3 856.2 893C847.5 897.4 842.8 907.7 845 918C846.8 931.7 848.6 945.5 850.4 959.2C813.9 975.9 796.5 986.8 798 991.8C799.8 997.9 829.4 995.3 886.9 984.2C884.3 954.7 881.8 925.3 879.4 895.8V895.8Z" fill="#191919"/>
<path d="M842.1 575.7C847.9 623.2 854.1 672.2 860.7 723.1C865.2 758.1 866.3 766.4 869.8 780C875.8 803.6 883.9 823.7 890.9 860.2C894.2 877.2 895.9 891 888 901.4C882.1 909.2 870.6 915.4 868 913C866.9 911.9 867.6 909.1 868.6 906.6C866.2 908.9 851 923.2 838.9 918.2C831.8 915.3 828.9 907 827.5 902.5C813.3 859 811 815.4 811 815.4C810.1 798.6 807.9 781.4 803.6 746.9C800.4 721.6 794.4 685 781.5 640.5C779.6 639.3 761 626.9 759.8 604C759.7 602.3 759 585 769.9 573.3C784.3 557.8 815.1 556.7 842.1 575.7V575.7Z" fill="white" stroke="#161616" stroke-width="2" stroke-miterlimit="10"/>
<path d="M761.4 587.7C757.8 598.1 756.8 609.8 762.5 619.7C767.4 628.2 775.3 637.5 784.9 640.5C786.7 641.1 787.5 638.2 785.7 637.6C776.9 634.9 769.5 626 765.1 618.2C759.8 609 761 598.2 764.3 588.5C765 586.7 762.1 585.9 761.4 587.7Z" fill="white"/>
<path d="M758.4 606.3C759.3 621.9 769.3 634.9 784.5 639.2C786.4 639.7 787.2 636.8 785.3 636.3C771.5 632.4 762.3 620.6 761.4 606.3C761.3 604.4 758.3 604.4 758.4 606.3Z" fill="white"/>
<path opacity="0.14" d="M802.7 562.7C805.3 570.5 809.3 583.1 813.7 598.7C826.5 643.9 848.6 722.2 850 816.4C850.2 832.1 850.8 912 858 912.4C859.7 912.5 862.5 908.1 866.3 909.1C868.9 909.8 869 912.2 871.3 913.1C876.3 915 884.6 906.4 888.6 900.1C890 897.9 893.2 892.9 893.9 885.8C894.3 882.6 894 880.3 892.9 873.5C891.3 863 890.5 857.8 889.9 855.2C885.6 834.9 877.9 815.4 871.6 787.9C868.9 776.3 867.1 765.9 864.9 753.9C864.2 750.1 862.3 739 860.2 725.2C855.5 693.6 854 671.9 850.9 644.2C849.2 629.1 846.6 607.8 842.6 581.9C841.6 579.7 839.8 576.3 836.6 573.2C835.5 572.2 832.1 569.1 822.9 566.2C818.4 564.6 811.5 562.9 802.7 562.7V562.7Z" fill="#6D6C6C"/>
<path opacity="0.2" d="M867.7 773C873.2 798.6 876.9 820.5 879.4 837.7C883.4 865.7 883.6 875.9 878.4 886.7C870.6 903 854.4 912.7 855.4 914C855.8 914.5 858.4 913.5 867.4 907.7C867.7 910.1 868.4 912.8 870.4 913.7C875.5 915.9 886.8 904.9 891.7 894.4C898.4 879.9 893.5 865 889 850.7C883.4 832.6 875.9 806.8 867.7 773Z" fill="#6D6C6C"/>
<path d="M734.7 405.7C724.9 404.4 715.9 417.2 698.4 442.7C686.4 460.1 678 475.4 672.5 486C660.6 485.4 648.7 484.8 636.8 484.1C625.7 483.5 614.6 482.9 603.5 482.2C599.1 480.7 592.5 478.5 584.4 476.6C571.3 473.4 544.2 468.1 542.5 472.8C542 474.3 543.8 477.4 555.4 484.7C554.6 486.7 551.7 495.1 555.4 504.8C556 506.3 559.3 514.4 567.1 518.6C577.1 523.9 590.9 521 601 511.1C608.8 515.8 651.1 540.5 690.9 523.6C703.9 518.1 713 509.7 721.1 502.3C735.8 488.8 755.1 471.1 755.6 446.5C756 428.7 746.6 407.3 734.7 405.7V405.7Z" fill="white" stroke="#161616" stroke-width="2" stroke-miterlimit="10"/>
<path d="M541.7 474C545.6 477.9 549.4 482.1 553.8 485.4C558.1 488.6 563 490.4 568 492.1C569.4 492.6 570 490.4 568.6 489.9C563.3 488.1 558.2 486.1 553.8 482.5C550 479.4 546.7 475.8 543.3 472.4C542.3 471.4 540.7 473 541.7 474V474Z" fill="#161616"/>
<path d="M589 484.3C585.2 485.7 581.7 487.9 579 490.9C577.1 493 574.3 496.3 575 499.3C575.7 502.7 579.9 502.7 582.7 502.7C587.2 502.6 591.5 501.3 595.4 499C596.6 498.3 595.5 496.3 594.3 497.1C591.8 498.6 589.1 499.7 586.2 500.2C583.7 500.6 576.4 501.5 577.7 496.8C579 492 585.4 488.1 589.7 486.5C590.9 486 590.3 483.8 589 484.3V484.3Z" fill="#161616"/>
<path d="M554.1 486.5C552 493.2 552 499.7 559.2 502.9C564.5 505.3 572.2 504.1 574.9 498.4C575.5 497.1 573.6 496 573 497.3C570.8 502 564.5 502.8 560.1 500.8C554 498.1 554.6 492.6 556.3 487.1C556.7 485.7 554.6 485.1 554.1 486.5V486.5Z" fill="#161616"/>
<path d="M553.6 501.3C554 507 557.5 512.6 563.5 513.7C568.8 514.7 573.7 511.5 575.6 506.7C576.1 505.4 574 504.8 573.4 506.1C571.8 510.1 567.3 512.5 563 511.3C558.6 510 556.1 505.6 555.8 501.3C555.8 499.9 553.5 499.9 553.6 501.3V501.3Z" fill="#161616"/>
<path d="M575.2 507.8C583 506.4 580.4 520.3 574.7 519.8C573.3 519.7 573.3 521.9 574.7 522.1C579.5 522.5 582.1 516.6 582.4 512.6C582.7 508.2 578.9 505 574.6 505.8C573.2 505.9 573.8 508 575.2 507.8V507.8Z" fill="#161616"/>
<path d="M574.6 499.7C574.6 499.6 574.7 499.6 574.7 499.5C574.3 499.6 574 499.7 573.6 499.8C574.4 500 574.5 502.6 574.4 503.1C574.3 504.4 573.8 505.6 572.8 506.6C571.8 507.6 573.4 509.2 574.4 508.2C575.9 506.7 576.7 504.6 576.6 502.4C576.5 500.8 576 498 574.1 497.6C573.7 497.5 573.3 497.6 573 497.9C573 498 572.9 498 572.9 498.1C572.1 499.2 573.6 500.8 574.6 499.7V499.7Z" fill="#161616"/>
<path d="M569.2 492.3C571.6 492.4 573.1 494.7 572.5 497C572.1 498.4 574.3 499 574.7 497.6C575.7 493.9 573.2 490.2 569.3 490.1C567.7 490 567.7 492.3 569.2 492.3Z" fill="#161616"/>
<path opacity="0.12" d="M749.5 421.8C746.6 430.3 741.8 441.8 734.2 454.4C726.4 467.3 717.7 481.6 700.8 493.6C694.6 498 675.9 511 648.2 512C622.1 512.9 602.9 502.7 595.3 498.1C589.3 502.6 585.2 502.9 582.5 502.3C580.1 501.7 579.2 500.5 575 499.2C571.4 498.1 568.5 497.9 566.9 497.8C561.1 497.4 555.1 497 553.5 499.7C551.4 503.4 558.2 511.3 563.5 515.6C565.9 517.5 570.1 520.8 576 521.7C589.9 523.9 600.2 511.8 600.8 511.1C604.2 513.2 609.1 516.1 615.3 518.9C625.4 523.6 639.7 530.1 658.7 530C680.3 530 695.9 521.5 699.1 519.7C702.9 517.5 710 511.3 724.1 498.8C737.2 487.2 742 482.1 746.4 475.1C749 471 752.3 465.7 754.2 458.4C758.3 442.8 752.8 428.6 749.5 421.8V421.8Z" fill="#6D6C6C"/>
<path opacity="0.15" d="M754.8 433.8C752.9 440.4 749.6 449.7 743.9 460C738.6 469.6 724.6 494.3 694.9 509.5C686.1 514 670.9 521.6 649.8 521.2C626.4 520.7 609.6 510.7 602.5 505.9C598.5 508.4 592.5 511.6 584.7 513.7C574.3 516.4 566.8 515.5 566.6 517C566.4 518.5 573.6 521.7 581.1 521.5C591.6 521.2 599 514.3 601.7 511.5C608.6 516.5 634.4 534.1 668.2 529.6C694.3 526.1 710.8 511.4 725.3 498.4C736.1 488.7 748.6 477.2 753.4 458C755.9 448.2 755.5 439.6 754.8 433.8V433.8Z" fill="#6D6C6C"/>
<path d="M724.1 406.1C722.1 408.4 718.6 413.3 715.6 436.7C711.6 468.5 713.7 493.7 715.6 512.5C717.8 534.8 720.9 561.7 725.4 592.3C742.8 597.7 771.7 603.8 806.4 598.3C822.1 595.8 835.5 591.5 846.3 587C844 562 844.3 541.8 845 528.5C848.4 459.8 851.5 440.7 851.5 440.7C853.8 427 855.9 418.5 850.8 410.8C845.7 402.9 836 400.2 805.1 398.2C758.2 395 734.6 393.7 724.1 406.1V406.1Z" fill="#EC615B"/>
<path opacity="0.14" d="M791.6 398.4C794.7 409.4 797.3 421.1 799.5 433.5C810.9 498.7 802.9 556.5 791.6 599.6C797.4 599.2 803.5 598.5 810 597.4C823.8 595.1 835.9 591.5 845.9 587.8C844.5 567.9 844.1 550.9 844.1 537.4C844.2 499.7 847.5 470.9 848.9 459.4C850.7 445.4 852.6 433.7 854.2 425.2C854.6 422.8 855 418.4 852.9 413.8C850.5 408.5 846 405.7 844.1 404.6C837.6 400.7 831 400.7 827.4 400.7C818.8 400.4 807.4 399.9 791.6 398.4V398.4Z" fill="#6D6C6C"/>
<path opacity="0.16" d="M853.4 422C835.7 467.9 832 500.7 832.4 522.8C832.5 531.1 833.4 551 822.8 571.9C816.3 584.6 807.8 593.5 801.3 599.1C807.3 598.3 813.9 597.1 821 595.2C830.1 592.8 838 589.8 844.7 586.9C843.8 561.1 843.9 533.1 845.6 503.2C847.1 474 849.9 446.9 853.4 422V422Z" fill="#6D6C6C"/>
<path d="M839.8 406.4C852.1 401 868.8 416.8 879.6 426.9C891.4 438 915.3 460.5 916.5 497.3C917.5 528 902.2 550.2 894.6 559.5C882.7 574 869.2 581.6 861.2 585.3C861.1 588.7 860.6 594.1 858.3 600C857 603.2 850.4 620 837.8 620.7C836.1 620.8 830.3 620.8 823.6 614.5C823.2 614.5 821.2 614.2 819.9 612.4C818.7 610.7 818.6 608.2 819.8 606.2C819.5 606 816.9 604.7 816.3 601.6C815.6 598.2 817.9 595.7 818.1 595.6C818.2 593.9 818.6 591.7 820.2 590.6C822 589.4 823.9 590.4 826.8 590.2C828.7 590 831.4 589.3 834.6 586.5C831 585.5 822.9 582.9 823.1 580C823.2 576.6 834.9 574.6 837.5 574.1C843.9 573 849.4 573.2 853.1 573.5C855.3 569.5 858.5 563.6 862.3 556.5C868.7 544.5 871.9 538.5 873.8 534.2C877.4 526.2 881.4 514.1 882.5 497.2C878 492.8 871.1 486.5 862.3 479.6C843.3 464.8 836.9 464.5 831.7 456.1C821.9 440.4 826.6 412.2 839.8 406.4V406.4Z" fill="white" stroke="#161616" stroke-width="2" stroke-miterlimit="10"/>
<path d="M817.1 594.4C818.7 602.2 830.7 600.4 835.5 597.6C836.7 596.9 835.6 594.9 834.4 595.7C830.9 597.8 820.5 600.1 819.3 593.9C819 592.4 816.8 593 817.1 594.4V594.4Z" fill="#161616"/>
<path d="M818.3 606.9C824.3 611.2 833.1 609.2 839.4 606.3C840.7 605.7 839.6 603.8 838.3 604.4C832.7 606.9 824.8 608.7 819.5 605C818.3 604.1 817.2 606.1 818.3 606.9Z" fill="#161616"/>
<path d="M822.8 615.7C829 618.7 836.2 618.3 841.9 614.3C843.1 613.5 842 611.5 840.8 612.4C835.8 615.9 829.5 616.5 824 613.8C822.7 613.1 821.5 615 822.8 615.7Z" fill="#161616"/>
<path opacity="0.18" d="M835.5 410.2C833.5 417 856.9 423.5 877.4 445.5C884.5 453.1 899 468.6 902.4 491.6C906.7 520.1 891.8 542.9 886.3 551.1C875.7 567.2 862.8 576.7 855 581.6C855 584.4 854.6 594.6 846.8 603.2C845.2 605 838.9 611.9 829.7 612.9C824.4 613.5 819.6 612 819.4 612.6C819.3 613.2 823 614 827.8 617.3C830.9 619.4 831 620.3 832.5 621C838.7 623.9 848.5 615.1 849.6 614.2C859.8 604.9 861 591.1 861.2 586C863.5 584.7 866.6 582.9 870.2 580.5C873.9 578 884.8 570.8 893.4 561.3C895.7 558.8 907.4 545.5 913.1 524.2C915.1 516.7 920.6 495 911.8 471.3C907.9 461 902.9 454.3 893.9 442.6C885.9 432.1 880 426.9 868.6 416.8C860.4 409.5 855.5 406.1 848.9 405.7C844.4 405.4 836.6 406.5 835.5 410.2V410.2Z" fill="#6D6C6C"/>
<path opacity="0.18" d="M904 456C907.4 464.4 912.3 479.7 911.6 499.2C910.9 520.4 904 535.8 901.3 541.1C888.9 566.1 869.3 579.5 859.7 585.1C867.5 582.2 878.8 576.7 889.5 566.4C920.8 536.2 916.2 493.6 915.8 490.6C914 475.6 908.6 463.9 904 456V456Z" fill="#6D6C6C"/>
<path d="M789.4 329.4C795.4 349.5 797.6 361.2 806.1 379.6C810.1 388.2 813.9 395 816.6 399.5C807.9 403.6 793.8 408.9 775.7 409.6C765 410 755.8 408.6 748.7 407C749.4 401.5 749.8 394.6 749.3 386.8C748.6 377 746.5 368.7 744.5 362.6C734.9 361.4 725.2 360.1 715.6 358.9C713.7 354.7 711.8 350.4 709.9 346.2C707.3 346.1 704.6 346 702 345.9C704 340.1 707 331 710.5 319.7C717 298.4 716.9 295.4 720.4 290.6C730.1 277.5 751.8 269.1 766.1 276.2C774.6 280.3 779.6 296.7 789.4 329.4V329.4Z" fill="white" stroke="#161616" stroke-width="2" stroke-miterlimit="10"/>
<path d="M702.2 347.5C707.2 347.6 712.1 347.2 717 346.5C718.9 346.2 718.1 343.3 716.2 343.6C711.5 344.3 706.9 344.6 702.2 344.5C700.3 344.5 700.3 347.5 702.2 347.5Z" fill="#161616"/>
<path d="M700.3 309.3C703.1 307.8 706.8 308.6 708.6 311.2C709.7 312.8 712.3 311.3 711.2 309.7C708.4 305.7 703.1 304.4 698.8 306.7C697.1 307.6 698.6 310.2 700.3 309.3Z" fill="#161616"/>
<path d="M723.9 312.8C727.5 311.7 731.4 312.9 733.5 316.1C734.6 317.7 737.2 316.2 736.1 314.6C733.2 310.4 728 308.4 723.1 310C721.3 310.5 722 313.4 723.9 312.8Z" fill="#161616"/>
<path d="M724.6 324C724.5 322.9 724.7 321.8 725.3 320.8C725.4 320.6 725.6 320.3 725.8 320.1C725.4 319.6 725.2 319.5 725.3 320C725.1 320.2 725.2 321.2 725.1 321.5C725 322 724.8 322.5 724.6 323C724.5 323.2 724.4 323.4 724.3 323.5C724.8 324.4 725.1 324.5 725.3 323.8C725.7 323.4 725.9 322.5 726.2 322C726.5 321.4 726.8 320.8 727.1 320.2C727.9 318.7 726 317.2 724.7 318.4C724 319.1 723.6 319.8 723.3 320.7C722.8 322.6 725.7 323.4 726.2 321.5C726.3 321 726.5 320.8 726.8 320.5C726 319.9 725.2 319.3 724.4 318.7C723.7 320.1 722.9 321.5 722.3 323C721.8 324.1 721.9 325.4 723 326.1C725.7 327.8 727.4 324.3 727.9 322.2C728.3 320.2 728.3 316 725 316.9C722.4 317.7 721.4 321.5 721.5 323.8C721.7 325.9 724.7 325.9 724.6 324V324Z" fill="#161616"/>
<path d="M716.9 295.8C717.6 291.5 719.3 284.3 724 276.9C725.7 274.3 729.2 268.8 734.9 265.1C745.8 258 762.5 258.6 774.6 267.3C786.5 275.8 792.4 291 789.8 306.2C765.6 302.8 741.2 299.3 716.9 295.8V295.8Z" fill="#5222D0"/>
<path d="M677.1 296.1C714.6 300.8 752 305.5 789.5 310.2C795.2 310.9 795.2 301.9 789.5 301.2C752 296.5 714.6 291.8 677.1 287.1C671.3 286.4 671.4 295.4 677.1 296.1Z" fill="#161616"/>
<path d="M765.6 305.2C759 307.6 755.1 312.2 750.7 317.5C741.3 328.9 744.1 333.1 737.5 340.2C727 351.5 716.3 344.8 706.9 355.9C698.9 365.3 700 378 700.3 380.9C700.6 383.7 702 395 711.3 402.8C719.4 409.5 730.2 411 730.9 409.5C731.1 409 730.3 407.6 724.3 403.6C726 404.8 728.8 406.3 732.3 407C736.4 407.7 740.3 407 740.3 406.4C740.3 405.9 738.1 406 736.4 404.2C735.4 403.1 735 401.9 734.7 400.8C738 402.9 742.1 404.8 746 403.6C756.7 400.4 758.6 376.7 759.2 368.8C761.2 343.4 753.9 329.5 762.8 320.5C763.5 319.7 767.1 316.1 771.1 316.9C776.1 317.8 779.9 325.5 778.3 330.6C776.9 335 771.9 336.2 772.2 337.1C772.7 338.1 781.1 336.5 788.2 330.9C790.8 328.9 792.9 327.2 794 324.2C795.9 318.9 793.7 312.9 790.7 309.3C784.5 302.1 772.8 302.6 765.6 305.2V305.2Z" fill="#161616" stroke="#161616" stroke-width="2" stroke-miterlimit="10"/>
<path opacity="0.22" d="M775.5 338C773.9 338.2 771.6 338.2 771.5 337.7C771.4 337.4 772 337 772 337C772 337 770.1 339.4 767.7 339.7C766.6 339.8 765.6 339.5 764.9 339.1C769.1 348 773.4 358.7 777.1 371.1C781.1 384.7 783.4 397 784.7 407.6C789 407.6 795.1 407.1 802.1 404.9C807.8 403.1 812.3 400.7 815.7 398.6C806.7 384.5 802.1 373.2 799.5 365.5C798.3 361.9 795.7 353.4 794.5 349.2C792.2 341.6 790.3 335.3 789.1 331.1C788.5 331.7 787.4 332.6 786.1 333.5C784.2 334.9 780.5 337.5 775.5 338V338Z" fill="#6D6C6C"/>
<path d="M748.6 260.7C758.3 262.6 765.6 270.4 766.8 279.5C768.1 290.4 760.1 297.9 759.3 298.5C769.7 299.8 780 301 790.4 302.3C790.6 299.9 790.7 296.6 790 292.8C788 280.6 780.8 273 779.3 271.5C776.9 269.1 768.4 261 755.7 260.3C752.8 260.2 750.3 260.5 748.6 260.7Z" fill="#321693"/>
<path d="M528.5 698.4C529 703.8 529.4 709.3 529.9 714.7L1039 715.6C1040.5 710.2 1042 704.7 1043.5 699.3C871.9 699 700.2 698.7 528.5 698.4Z" fill="white"/>
<path d="M535.3 699.1H540.7C542.6 699.1 542.6 696.1 540.7 696.1C538.9 696.1 537.1 696.1 535.3 696.1C533.3 696.1 533.3 699.1 535.3 699.1Z" fill="#161616"/>
<path d="M529.8 702H730.5C730.5 702 864.3 702 931.2 702H1045C1048.9 702 1048.9 696 1045 696C978.1 696 911.2 696 844.3 696C777.4 696 710.5 696 643.6 696C605.7 696 567.7 696 529.8 696C526 696 526 702 529.8 702Z" fill="#161616"/>
<path d="M531.2 716.8H926.4H1038.2C1042.1 716.8 1042.1 710.8 1038.2 710.8C906.5 710.8 774.7 710.8 643 710.8C605.7 710.8 568.5 710.8 531.2 710.8C527.3 710.8 527.3 716.8 531.2 716.8Z" fill="#161616"/>
<path d="M547.1 731.4V982.7V1054.5C547.1 1058.4 553.1 1058.4 553.1 1054.5C553.1 970.7 553.1 886.9 553.1 803.2C553.1 779.3 553.1 755.3 553.1 731.4C553.1 727.6 547.1 727.6 547.1 731.4V731.4Z" fill="#161616"/>
<path d="M964.9 727.4V954.9V1019.5C964.9 1023.4 970.9 1023.4 970.9 1019.5C970.9 943.7 970.9 867.8 970.9 792C970.9 770.5 970.9 749 970.9 727.4C970.9 723.5 964.9 723.5 964.9 727.4Z" fill="#161616"/>
<path d="M133.8 984.5H362.6H592.4H721.3C725.2 984.5 725.2 978.5 721.3 978.5C645 978.5 568.8 978.5 492.5 978.5C415.9 978.5 339.3 978.5 262.7 978.5C219.7 978.5 176.8 978.5 133.8 978.5C129.9 978.5 129.9 984.5 133.8 984.5V984.5Z" fill="#161616"/>
<path d="M836.3 987.2H1039H1240.7H1355.5C1359.4 987.2 1359.4 981.2 1355.5 981.2C1287.9 981.2 1220.4 981.2 1152.8 981.2C1085.6 981.2 1018.3 981.2 951.1 981.2C912.8 981.2 874.6 981.2 836.3 981.2C832.4 981.2 832.4 987.2 836.3 987.2Z" fill="#161616"/>
<path d="M548.3 731.3V977.1V1047.1C548.3 1051 554.3 1051 554.3 1047.1C554.3 965.2 554.3 883.2 554.3 801.3C554.3 778 554.3 754.7 554.3 731.3C554.3 727.4 548.3 727.4 548.3 731.3Z" fill="#161616"/>
<path d="M549.6 732.6V977.4V1047.1C549.6 1051 555.6 1051 555.6 1047.1C555.6 965.5 555.6 883.9 555.6 802.3C555.6 779.1 555.6 755.9 555.6 732.6C555.6 728.8 549.6 728.8 549.6 732.6V732.6Z" fill="#161616"/>
<path d="M964.4 725.9V948.6V1012.2C964.4 1016.1 970.4 1016.1 970.4 1012.2C970.4 938 970.4 863.7 970.4 789.5C970.4 768.3 970.4 747.1 970.4 725.9C970.4 722.1 964.4 722.1 964.4 725.9Z" fill="#161616"/>
<path d="M965.8 727.3V948.1V1011C965.8 1014.9 971.8 1014.9 971.8 1011C971.8 937.4 971.8 863.8 971.8 790.2C971.8 769.2 971.8 748.2 971.8 727.3C971.8 723.4 965.8 723.4 965.8 727.3V727.3Z" fill="#161616"/>
<path d="M534.5 717.3C539.7 723.6 544.3 730.2 548.4 737.2C550.4 740.5 555.6 737.5 553.6 734.2C549.2 726.8 544.2 719.8 538.7 713.1C536.2 710.1 532 714.3 534.5 717.3Z" fill="#161616"/>
<path d="M554.8 735.1C562.2 728.9 569.5 722.6 576.9 716.4C579.8 713.9 575.6 709.7 572.7 712.2C565.3 718.4 558 724.7 550.6 730.9C547.6 733.4 551.9 737.6 554.8 735.1Z" fill="#161616"/>
<path d="M947.7 720.4C953.9 724.3 960.1 728.2 966.3 732.1C969.6 734.2 972.6 729 969.3 726.9C963.1 723 956.9 719.1 950.7 715.2C947.4 713.2 944.4 718.4 947.7 720.4Z" fill="#161616"/>
<path d="M983.8 713.3C978.6 717.5 973.6 722 968.9 726.7C966.2 729.4 970.4 733.7 973.1 730.9C977.8 726.2 982.8 721.7 988 717.5C991 715.1 986.8 710.9 983.8 713.3Z" fill="#161616"/>
<path d="M952.4 720.7C960.4 721.9 968.2 722.2 976.2 721.4C975.7 719.5 975.2 717.7 974.7 715.8C971.4 717.9 968 718.5 964.1 718.9C961.9 719.2 959.7 722.2 962 724C965.1 726.5 968.2 727.3 972.1 726.3C975.8 725.4 974.3 719.6 970.5 720.5C969 721.1 967.5 720.8 966.2 719.7C965.5 721.4 964.8 723.1 964.1 724.8C968.9 724.3 973.6 723.6 977.7 720.8C980 719.3 979.4 714.9 976.2 715.2C968.8 715.9 961.3 715.8 953.9 714.7C950.2 714.3 948.6 720.1 952.4 720.7V720.7Z" fill="#161616"/>
<path d="M981.4 715C978.6 714.4 975.8 714.8 973.4 716.4C972.1 717.3 971.5 719 972.3 720.5C973.1 721.8 975.1 722.5 976.4 721.6C977.5 720.8 978.6 720.5 979.7 720.8C981.3 721.1 982.9 720.3 983.4 718.7C983.9 717.2 983 715.3 981.4 715Z" fill="#161616"/>
<path d="M541.3 720.1C543.1 721.3 549.8 724.4 549.5 727L552.5 724C552.1 724 550.9 719.4 550.6 718.6C549.7 720.1 548.9 721.6 548 723.1C554 722.8 559.7 721.6 565.2 719.4C564.2 717.7 563.3 716.1 562.3 714.4C558.9 717.9 555.3 721.2 551.4 724.2L555.5 728.3C559.1 722.2 554 717.2 548.8 714.6C548.3 716.5 547.8 718.3 547.3 720.2C551.4 720 555.5 719.9 559.6 720.1C563.5 720.3 563.4 714.3 559.6 714.1C555.5 713.9 551.4 713.9 547.3 714.2C544.5 714.4 543 718.4 545.8 719.8C547.6 720.7 552 722.6 550.4 725.3C549 727.7 552 731.3 554.5 729.4C558.8 726.1 562.9 722.6 566.6 718.7C568.5 716.7 566.6 712.5 563.7 713.7C558.6 715.7 553.5 716.9 548.1 717.2C545.7 717.3 544.6 719.6 545.5 721.7C547.2 725.5 547.1 730.1 552.6 730C554.4 730 555.4 728.6 555.6 727C556.4 721 548.5 717.6 544.5 715C541.1 712.8 538.1 718 541.3 720.1V720.1Z" fill="#161616"/>
<path d="M574.1 695.3C574.1 690.4 574.1 685.5 574.1 680.5C574.1 678.6 571.1 678.6 571.1 680.5V695.3C571.1 697.3 574.1 697.3 574.1 695.3Z" fill="#E8E8E8"/>
<path d="M572.6 681.8H655.6C657.5 681.8 657.5 678.8 655.6 678.8C627.9 678.8 600.3 678.8 572.6 678.8C570.7 678.8 570.7 681.8 572.6 681.8Z" fill="#E8E8E8"/>
<path d="M654.1 680.3V694.4C654.1 696.3 657.1 696.3 657.1 694.4C657.1 689.7 657.1 685 657.1 680.3C657.1 678.3 654.1 678.3 654.1 680.3Z" fill="#E8E8E8"/>
<path d="M576.4 687.4H639.9C641.8 687.4 641.8 684.4 639.9 684.4C618.7 684.4 597.6 684.4 576.4 684.4C574.5 684.4 574.5 687.4 576.4 687.4Z" fill="#E8E8E8"/>
<path d="M590.5 693.1H639.2C641.1 693.1 641.1 690.1 639.2 690.1C623 690.1 606.7 690.1 590.5 690.1C588.6 690.1 588.6 693.1 590.5 693.1Z" fill="#E8E8E8"/>
<path d="M593.9 680C593.9 676.6 593.9 673.3 593.9 669.9C593.9 668 590.9 668 590.9 669.9V680C590.9 681.9 593.9 681.9 593.9 680Z" fill="#E8E8E8"/>
<path d="M594.3 670.8H666.6C668.5 670.8 668.5 667.8 666.6 667.8C642.5 667.8 618.4 667.8 594.3 667.8C592.4 667.8 592.4 670.8 594.3 670.8Z" fill="#E8E8E8"/>
<path d="M656.5 681.1H665.9C667.8 681.1 667.8 678.1 665.9 678.1C662.8 678.1 659.6 678.1 656.5 678.1C654.6 678.1 654.6 681.1 656.5 681.1Z" fill="#E8E8E8"/>
<path d="M665.1 669.6V679.3C665.1 681.2 668.1 681.2 668.1 679.3C668.1 676.1 668.1 672.8 668.1 669.6C668.1 667.6 665.1 667.6 665.1 669.6Z" fill="#E8E8E8"/>
<path d="M608.8 675.8H626.1C628 675.8 628 672.8 626.1 672.8C620.3 672.8 614.6 672.8 608.8 672.8C606.8 672.8 606.8 675.8 608.8 675.8Z" fill="#E8E8E8"/>
<path d="M638.6 678.3H654C655.9 678.3 655.9 675.3 654 675.3C648.9 675.3 643.7 675.3 638.6 675.3C636.7 675.3 636.7 678.3 638.6 678.3Z" fill="#E8E8E8"/>
<path d="M610.7 666.4C608.3 664.1 607.8 660.6 608 657.4C608.4 652.1 613.2 651.9 617.2 653.5C619 654.2 619.8 651.3 618 650.6C613.5 648.8 607.6 648.9 605.6 654.2C603.9 658.7 605.1 665.2 608.6 668.5C610 669.9 612.1 667.7 610.7 666.4Z" fill="#E8E8E8"/>
<path d="M616.7 652C626.1 647.8 630 663.6 621.9 667.6C620.2 668.5 621.7 671 623.4 670.2C635 664.4 628.2 643.6 615.2 649.4C613.4 650.2 615 652.8 616.7 652V652Z" fill="#E8E8E8"/>
<path d="M617 651.2C616.5 648 615.3 645.1 613.4 642.5C612.3 640.9 609.7 642.4 610.8 644C612.5 646.4 613.6 649 614.1 652C614.4 653.9 617.3 653.1 617 651.2V651.2Z" fill="#E8E8E8"/>
<path d="M615.6 646.1C615.9 645.3 616.3 644.6 616.8 643.9C617 643.6 617.3 643.2 617.6 642.9C617.7 642.7 617.9 642.6 618.1 642.4C617.6 641.4 617.3 641.2 617.1 641.7C616.6 642.2 616.1 643.5 615.8 644.2C615.3 645.1 614.7 645.9 614.1 646.7C613 648.3 615.6 649.8 616.7 648.2C617.8 646.7 618.8 645.1 619.6 643.4C620.3 642 620.7 640.2 618.9 639.5C615.9 638.4 613.6 643.1 612.8 645.2C612 647.1 614.9 647.9 615.6 646.1V646.1Z" fill="#E8E8E8"/>
<path d="M1107 847.4C1107.4 852.1 1107.8 856.9 1108.2 861.6C1154.3 861.2 1200.4 860.8 1246.5 860.4C1246 855.9 1245.5 851.4 1245 847C1198.9 847.2 1153 847.3 1107 847.4Z" fill="white"/>
<path d="M1107.9 863.2H1246.1C1250 863.2 1250 857.2 1246.1 857.2C1200 857.2 1154 857.2 1107.9 857.2C1104.1 857.2 1104 863.2 1107.9 863.2Z" fill="#161616"/>
<path d="M1108.8 849.5H1244.4C1248.3 849.5 1248.3 843.5 1244.4 843.5C1199.2 843.5 1154 843.5 1108.8 843.5C1104.9 843.5 1104.9 849.5 1108.8 849.5Z" fill="#161616"/>
<path d="M1104.1 847.4V857.6C1104.1 861.5 1110.1 861.5 1110.1 857.6C1110.1 854.2 1110.1 850.8 1110.1 847.4C1110.1 843.5 1104.1 843.5 1104.1 847.4Z" fill="#161616"/>
<path d="M1243.1 847.4V861C1243.1 864.9 1249.1 864.9 1249.1 861C1249.1 856.5 1249.1 851.9 1249.1 847.4C1249.1 843.5 1243.1 843.5 1243.1 847.4Z" fill="#161616"/>
<path d="M1175.7 861.9V1034.2C1175.7 1038.1 1181.7 1038.1 1181.7 1034.2C1181.7 976.8 1181.7 919.4 1181.7 861.9C1181.7 858 1175.7 858 1175.7 861.9V861.9Z" fill="#161616"/>
<path d="M1175.5 1033.3C1165.2 1039.4 1154.9 1045.5 1144.5 1051.6C1141.2 1053.6 1144.2 1058.8 1147.5 1056.8C1157.8 1050.7 1168.1 1044.6 1178.5 1038.5C1181.9 1036.5 1178.8 1031.3 1175.5 1033.3Z" fill="#161616"/>
<path d="M1177.2 1037.6C1188.9 1044.1 1200.5 1050.7 1212.2 1057.2C1215.6 1059.1 1218.6 1053.9 1215.2 1052C1203.5 1045.5 1191.9 1038.9 1180.2 1032.4C1176.8 1030.5 1173.8 1035.7 1177.2 1037.6Z" fill="#161616"/>
<path d="M1146.3 1059C1168.5 1058.8 1190.6 1058.1 1212.8 1057C1216.6 1056.8 1216.7 1050.8 1212.8 1051C1190.7 1052.1 1168.5 1052.8 1146.3 1053C1142.4 1053 1142.4 1059 1146.3 1059Z" fill="#161616"/>
<path d="M1149.6 864.1C1158.6 876.9 1166.8 890.3 1174.2 904.1C1176 907.5 1181.2 904.5 1179.4 901.1C1172 887.3 1163.8 873.9 1154.8 861.1C1152.6 857.9 1147.4 860.9 1149.6 864.1Z" fill="#161616"/>
<path d="M1209.7 859.8C1196.6 872.3 1185.4 886.5 1176.3 902.1C1174.3 905.4 1179.5 908.5 1181.5 905.1C1190.4 889.9 1201.3 876.2 1214 864.1C1216.8 861.4 1212.5 857.1 1209.7 859.8Z" fill="#161616"/>
<path d="M965.3 977.4C964.5 991.7 963.8 1006 963 1020.3C924.8 1036.9 906.4 1047.8 907.9 1052.8C909.6 1058.8 939 1056.7 995.9 1046.7C996.3 1022.2 996.7 997.7 997 973.2C986.5 974.6 975.9 976 965.3 977.4V977.4Z" fill="#161616"/>
<path d="M1083.9 745.7C1075.4 753.3 1063.3 764.3 1049.2 777.9C1015.6 810.5 990.9 834.4 974.2 859.1C960.4 879.6 939.9 918.6 938.3 982.4C952.1 986.2 969.5 989.4 989.7 989.2C996.5 989.1 1003 988.7 1008.9 988C1006.3 973.5 1004.2 950.8 1009.5 924.2C1013.2 905.5 1019.4 890.5 1025 879.6C1070 859.6 1100.4 835.1 1119.8 816.4C1139.4 797.5 1161.7 775.9 1155.7 760.6C1150.2 746.1 1120.9 740.5 1083.9 745.7Z" fill="#EC615B"/>
<path opacity="0.18" d="M1131.2 745.8C1116.1 765.9 1098 787.7 1076.3 809.9C1049.1 837.8 1022.2 860.3 998.1 878.2C989.7 915.1 981.3 952 972.9 988.8C976.5 989.4 980.6 989.9 985.1 989.9C994.2 990.1 1002 988.8 1008 987.2C1006.1 974.6 1004.8 957.3 1007.2 937.2C1010.2 912.4 1017.8 892.9 1024 880C1046.6 869.6 1064.5 859 1077.4 850.6C1077.4 850.6 1117.8 824.4 1149.1 784.2C1149.8 783.3 1152.2 780.2 1154.1 775.4C1155.6 771.5 1157.5 766.7 1156 761.7C1154.6 757.2 1151.2 754.7 1147.6 752.2C1144.8 750.3 1139.3 747 1131.2 745.8V745.8Z" fill="#6D6C6C"/>
<path opacity="0.16" d="M1023.2 880.5C1018.9 888.5 1014.7 896.9 1010.6 905.7C996.8 935.4 987.2 963.8 980.5 989.6C989.7 989.2 998.8 988.8 1008 988.5C1005.9 976.4 1004.3 960.1 1006.1 941.2C1008.6 914.5 1016.7 893.7 1023.2 880.5Z" fill="#6D6C6C"/>
<path d="M1027 991.2C1031.6 1005.5 1036.2 1019.8 1040.8 1034.1C1006.8 1054.5 990.7 1066.8 992.6 1070.9C994.9 1075.9 1024.2 1068.5 1080.6 1048.7C1072.8 1026 1065 1003.3 1057.2 980.6C1047.1 984 1037 987.6 1027 991.2V991.2Z" fill="#161616"/>
<path d="M1191.9 765.1C1199 801.2 1188.3 821.5 1183.2 829.3C1173 844.9 1159.4 849.7 1119.7 869.4C1104.2 877.1 1080.6 889.1 1051.7 905C1053.7 917.7 1056.9 932.3 1062 948.2C1066.8 963.2 1072.4 976.3 1077.8 987.3C1072.5 992.4 1061.8 1001.4 1045.5 1006.6C1027.9 1012.3 1012.8 1010.6 1005.4 1009.3C989.7 978.3 985.7 951.1 984.6 934.5C983.3 914.5 981.8 891.8 993.5 869.4C1002.5 852.2 1011.2 850.6 1047.6 822.8C1102.3 781.1 1107.8 765.5 1136 759.7C1159.1 755 1179.6 760.5 1191.9 765.1V765.1Z" fill="#EC615B"/>
<path opacity="0.22" d="M1154.5 758.4C1155 770 1154.1 788.2 1144.8 806.8C1137 822.5 1126.6 833.7 1092.3 856.9C1061.8 877.5 1037.5 893.4 1021.8 903.6C1031.8 937.1 1041.8 970.6 1051.8 1004.1C1054.8 1003.1 1058.4 1001.6 1062.1 999.5C1068.9 995.6 1073.7 990.9 1076.8 987.3C1072.4 977.9 1068 967.4 1064.1 955.9C1057.7 937.5 1053.7 920.3 1051.2 905.4C1076 891.6 1093.4 882.6 1103.6 877.5C1118.8 869.9 1126.3 866.1 1134 862.4C1136.6 861.2 1142.4 858.5 1150 854.5C1158.5 850.1 1162.7 848 1166.5 845.4C1169.6 843.3 1177.4 837.8 1183.7 828.7C1192.7 815.7 1193.5 802.1 1194.1 792.2C1194.5 785.8 1194.4 776.5 1192 765.6C1186.8 763.4 1179.8 761 1171.4 759.6C1164.9 758.4 1159.2 758.2 1154.5 758.4V758.4Z" fill="#6D6C6C"/>
<path opacity="0.11" d="M1194 785.1C1192.4 790.4 1189.5 798.1 1184.4 806.4C1168.7 831.6 1144.7 841.6 1127.9 850C1108 860 1081.2 876.5 1051.4 905C1059.8 900.3 1070.1 894.7 1082.1 888.3C1103.3 877 1113.8 871.4 1124.7 866.2C1133.2 862.2 1142.9 857.9 1157.4 850.2C1167.8 844.7 1173.5 841.3 1178.9 835C1185 827.9 1187.7 820.8 1189.5 816C1191.7 810 1194.8 799.3 1194 785.1V785.1Z" fill="#6D6C6C"/>
<path opacity="0.17" d="M1051 906C1051.1 914.4 1051.7 923.4 1052.8 932.9C1055.6 957.2 1061.5 978.1 1067.8 995C1069.6 994 1071.7 992.6 1073.9 990.7C1075.3 989.5 1076.5 988.3 1077.4 987.2C1073.2 978.5 1069.1 968.8 1065.2 958.3C1058.3 939.3 1053.9 921.6 1051 906V906Z" fill="#6D6C6C"/>
<path d="M1126 569.3C1113.5 573.5 1111.3 588.4 1102.9 605.4C1102.9 605.4 1089.7 632.4 1060.8 654.6C1050.3 662.7 1027.6 677 989.7 679.5C986 678 980.3 676 973.1 674.8C962.8 673.1 948.4 670.6 938.7 678.9C934.3 682.7 929.4 689.9 931.6 694.3C934.3 699.7 946.3 697.6 966 696.7C993.3 695.5 992 698.5 1011 697.3C1028 696.2 1054.8 694.6 1082.7 678.3C1109.4 662.8 1123.2 642.1 1126.5 636.8C1132.9 626.8 1135.8 618.7 1141.7 602.4C1149.5 581 1148.2 576.2 1146 573.4C1142.2 568.2 1133 566.9 1126 569.3Z" fill="white" stroke="#161616" stroke-width="2" stroke-miterlimit="10"/>
<path d="M977.8 682.6C971.5 683.8 962.4 684.1 957.8 689.3C955.2 692.3 955.6 697.6 960.4 697.6C961.8 697.6 961.9 695.3 960.4 695.3C958 692.8 958.2 690.8 961.2 689.4C962.2 688.7 963.3 688.2 964.5 687.7C965.8 687.2 967.1 686.9 968.4 686.6C971.7 685.9 975 685.3 978.4 684.7C979.8 684.5 979.2 682.4 977.8 682.6V682.6Z" fill="#161616"/>
<path d="M930.6 691.9C936.5 699.3 945.7 690.7 952.8 692.6C954.2 693 954.8 690.8 953.4 690.4C950.3 689.6 947.6 690 944.5 691C940.4 692.3 935.4 694.5 932.1 690.3C931.3 689.2 929.7 690.8 930.6 691.9V691.9Z" fill="#161616"/>
<path d="M934.2 682.8C934.4 685.8 936.4 687 939.3 687C945.8 687 951.5 684.4 958 686.5C959.4 686.9 960 684.8 958.6 684.3C955.3 683.2 952.1 683.1 948.7 683.4C946.3 683.6 936.7 686.3 936.5 682.7C936.3 681.4 934.1 681.4 934.2 682.8V682.8Z" fill="#161616"/>
<path d="M944 676.6C945 679 946.7 680.1 949.3 680.5C954.4 681.2 958.8 681.4 963.5 683.5C964.8 684.1 966 682.1 964.6 681.6C962 680.5 959.4 679.5 956.6 679C953.4 678.4 947.5 679.4 946.1 676C945.6 674.7 943.4 675.3 944 676.6Z" fill="#161616"/>
<path opacity="0.16" d="M1138.1 569.6C1132.4 571 1134.1 586.3 1131.1 600.5C1126.1 623.4 1109.8 637.7 1091.8 653.5C1079.6 664.2 1065.3 676.8 1043.5 682.4C1036 684.3 1023.6 686.4 1010.3 687.1C992.3 688 983.4 688.5 982.8 688.4C979.8 688.1 972.5 687.3 964.7 690.7C963.1 691.4 958.7 693.3 959 694.7C959.4 696.8 969.8 696.2 993.2 696C1010.5 695.9 1008.7 696.2 1014 696C1024 695.6 1041.4 695 1061 687.9C1088.9 677.9 1106.1 660.2 1114 652C1121.6 644 1125.8 637.8 1127.1 635.9C1133.3 626.6 1136.2 618.3 1141.9 602C1148.5 583 1148.5 578 1145.9 574.1C1144.1 571.8 1140.8 568.9 1138.1 569.6V569.6Z" fill="#6D6C6C"/>
<path opacity="0.13" d="M933.3 695.1C934 693.3 937 685.9 945 682C957 676.3 968.7 684 969.2 684.3C966.6 685.7 964.4 686.7 962.8 687.3C960.3 688.4 959.3 688.6 958.4 689.6C956.9 691.5 957.3 694.3 957.7 696C954.5 696.7 950.3 697.2 945.3 697C940.5 696.9 936.4 696 933.3 695.1V695.1Z" fill="#6D6C6C"/>
<path opacity="0.14" d="M1145.8 586C1141.6 600 1132.4 623.6 1112.2 646.4C1084.7 677.5 1052.4 689.6 1037.7 694.1C1049 692.1 1091 683.2 1120.6 644.8C1138.1 622 1143.7 598.8 1145.8 586V586Z" fill="#6D6C6C"/>
<path d="M1122.6 570.1C1116.3 577 1111.8 586.1 1108.9 619.7C1104.6 668.8 1111.4 680.1 1103.8 704.4C1100.3 715.5 1093.1 731.6 1076.4 748.9C1088.2 756.5 1107.3 766.9 1132.9 772.9C1158.2 778.8 1179.7 777.9 1193.7 776.3C1211.7 721 1210.2 676.3 1206.5 648.8C1203 622.6 1195.1 562.3 1163.7 554.7C1148.8 551 1131.9 560 1122.6 570.1Z" fill="white" stroke="#161616" stroke-width="2" stroke-miterlimit="10"/>
<path opacity="0.12" d="M1155.7 554.9C1155.2 559 1154.5 565.1 1153.8 572.4C1149.1 621.3 1154.6 630.2 1151 659C1149 675.4 1144.8 706.1 1123.2 734.7C1114.2 746.6 1104.7 754.9 1097.9 760C1108.8 765.5 1125.4 772.4 1146.6 775.6C1165.6 778.4 1181.7 777.3 1193.1 775.6C1196.3 766.4 1200.1 753.9 1203.1 738.9C1208.7 711.1 1209.1 687.4 1208.4 671C1207.1 639.3 1204.2 571.3 1169.4 557.4C1164 555.3 1159.1 554.9 1155.7 554.9Z" fill="#6D6C6C"/>
<path opacity="0.24" d="M1207.7 698.5C1206.5 698.3 1203.7 710.7 1199.6 721.9C1194.4 736.4 1184.6 755.9 1164.3 777C1174.1 776.5 1184 776.1 1193.8 775.6C1197.1 765 1201.3 749.2 1204.7 729.7C1206.9 716.6 1209.2 698.8 1207.7 698.5V698.5Z" fill="#6D6C6C"/>
<path d="M1182 568.8C1193.3 571 1198.1 588.9 1202.1 604.6C1206.1 620.4 1213.8 652.6 1203 695C1198.5 712.5 1194.5 728.8 1180.6 745.3C1162.5 766.9 1139.4 775.3 1128.6 778.4C1116.6 786.7 1110.4 790.9 1106.9 793.1C1104.4 794.7 1102.9 795.6 1100.2 797.5C1096.3 800.3 1095.6 801.2 1093.7 802C1091.7 802.8 1088.5 803.4 1083.7 801.9C1083.3 802 1080.2 802.4 1077.9 800.1C1076.5 798.7 1076.2 797.1 1076.2 796.4C1075.9 796.4 1074 796.2 1072.7 794.6C1071.5 793.1 1071.4 791 1072.3 789.2C1071.9 788.4 1071.5 787.3 1071.5 785.9C1071 778.9 1079.3 773.3 1083.9 770.1C1088.8 766.7 1098.5 761.3 1113.5 759.9C1121.6 755.6 1133.7 747.9 1144.4 735C1147.8 731 1170.5 702.8 1168.7 664.9C1168 649 1162.3 619.4 1159.1 591.8C1158.9 589.8 1158.3 584.4 1161.2 579.2C1165.4 572.1 1175 567.5 1182 568.8V568.8Z" fill="white" stroke="#161616" stroke-width="2" stroke-miterlimit="10"/>
<path d="M1072.6 789.9C1074 789.9 1074.1 787.6 1072.6 787.6C1071.2 787.6 1071.2 789.9 1072.6 789.9Z" fill="#161616"/>
<path d="M1071.5 788.7V789.4C1071.6 790.6 1072.9 790.9 1073.6 790C1077.6 784.7 1083 780.8 1089.3 778.8C1090.7 778.4 1090.1 776.2 1088.7 776.6C1081.8 778.8 1076 783 1071.6 788.8C1072.3 789 1073 789.2 1073.7 789.4C1073.7 789.2 1073.7 789 1073.7 788.7C1073.7 787.3 1071.4 787.3 1071.5 788.7Z" fill="#161616"/>
<path d="M1077.1 796.8C1082.2 791 1088.5 786.6 1095.7 783.7C1097 783.2 1096.5 781 1095.1 781.5C1087.5 784.5 1080.9 789 1075.5 795.1C1074.6 796.3 1076.2 797.9 1077.1 796.8Z" fill="#161616"/>
<path d="M1084.6 802.2C1089.8 796.3 1095.8 791.4 1102.6 787.4C1103.8 786.7 1102.7 784.7 1101.5 785.5C1094.6 789.6 1088.4 794.6 1083.1 800.7C1082.1 801.7 1083.7 803.3 1084.6 802.2V802.2Z" fill="#161616"/>
<path opacity="0.13" d="M1177.6 572.6C1173.8 578.1 1180 587.8 1183.5 595C1188.6 605.6 1189.4 617.1 1191 640.1C1193.9 681.8 1174.5 717.5 1173.1 720C1155.4 751.5 1127.9 770.4 1119.3 776.2C1104.7 786 1084 796.7 1085.7 800.8C1086.3 802.3 1089.6 802.5 1091 802.4C1095.8 802.2 1097.8 798.5 1104.5 793.8C1108 791.3 1107.9 792.1 1113.9 788.5C1117.4 786.4 1122.4 783.2 1128.3 778.7C1141.7 775.1 1151.6 769.6 1157.8 765.6C1166.8 759.8 1184.1 746.5 1194.7 723.3C1198.3 715.4 1199.7 709.1 1202.5 696.6C1205.4 683.5 1210 662 1207.4 634.6C1206.2 622.2 1204.1 613.9 1201.2 603C1196.7 585.5 1192.6 570.4 1184.8 569.4C1182.2 569 1179.1 570.5 1177.6 572.6V572.6Z" fill="#6D6C6C"/>
<path opacity="0.16" d="M1206.1 627.3C1205.2 627.3 1205.4 637.8 1201.1 665.7C1197.2 690.7 1195.2 703.5 1189.7 715.2C1181.7 732.2 1170.8 742.9 1165.5 748C1150.4 762.6 1141.3 763.6 1118.2 780.6C1106.1 789.5 1097.1 797.6 1091.8 802.6C1103.8 794.6 1115.7 786.6 1127.7 778.7C1138.7 775.5 1161.3 767.1 1179.5 745.6C1192 730.8 1196.9 716.3 1200.7 705C1213.7 664.7 1207.7 627.3 1206.1 627.3V627.3Z" fill="#6D6C6C"/>
<path d="M1137.1 525.2C1132.6 528.3 1131.8 534.3 1131.1 540.9C1130.4 547.6 1130.3 559.3 1136.4 573.8C1140.2 573.8 1144.9 573.5 1150.1 572.5C1154.2 571.7 1157.8 570.6 1160.8 569.5C1160.4 556.2 1160.1 542.9 1159.7 529.6C1151.3 523.4 1142.5 521.5 1137.1 525.2V525.2Z" fill="white" stroke="#161616" stroke-width="2" stroke-miterlimit="10"/>
<path d="M1113.3 458.5C1106.3 462.5 1103.3 469.2 1097.4 482.2C1090.8 497 1086.2 509.8 1084.4 519.2C1084.1 520.6 1084.8 522 1086.1 522.6C1087.8 523.4 1090.8 523.7 1092.4 524.1C1092.4 528 1092.9 534.7 1096.4 541.9C1102.8 555 1114.6 560.3 1118.1 561.7C1129.2 559.8 1137.4 556 1142.3 553.1C1146.8 550.6 1152.6 547.2 1158.3 540.6C1163.4 534.6 1166.1 528.6 1167.5 524.6C1169.6 524.6 1172.8 524.4 1176.1 522.6C1182.9 518.9 1188.7 509.2 1185.1 503.3C1182.4 499 1175 497.2 1167.4 500C1167.5 496.8 1167.4 492.4 1166.3 487.2C1166 485.9 1163.9 476.4 1159.1 469.7C1149.9 456.8 1127.5 450.4 1113.3 458.5V458.5Z" fill="white" stroke="#161616" stroke-width="2" stroke-miterlimit="10"/>
<path d="M1088.1 503.8C1085.6 499.9 1080.1 490.1 1080.9 477.1C1081.2 472.7 1081.8 464.3 1087.9 456.4C1095.3 446.8 1105.6 444.3 1108.6 443.7C1110 441.4 1112.4 438 1116.4 435.2C1118 434.1 1122.4 431.4 1133.2 430.8C1138.9 430.5 1147.6 430.7 1158 433.7C1166.1 436.1 1171.5 439.5 1174.8 442.2C1187.5 452.2 1186.5 460.1 1202.6 476.3C1206.3 480 1208.9 481.3 1214.5 486.8C1220.4 492.5 1225.1 498 1227.7 501.3C1233.6 508.8 1244.7 523 1246.8 542.2C1247.5 548.7 1249.5 567 1238.1 581C1222.6 600.1 1187.6 601.6 1166.3 586.4C1162.3 583.6 1145.7 571.6 1146.6 552.3C1147.4 534.9 1161.9 524.5 1163.9 523C1165.6 523.7 1169.1 524.8 1172.5 523.6C1179.6 521 1182.6 510.1 1178.9 504.6C1177.4 502.4 1175 501.5 1174.3 501.3C1168.5 499.3 1163.1 503.6 1162.7 503.9C1154.9 498.2 1149 492.7 1144.9 488.4C1139.3 482.7 1136.5 478.9 1135.5 477.5C1132.4 473.1 1130.1 469.1 1128.6 466.1C1124 467.2 1118 469.3 1111.7 473.4C1110.2 474.3 1105.2 477.7 1100 483.6C1099.4 484.3 1096.5 487.6 1093.4 492.6C1091.1 496.9 1089.3 500.7 1088.1 503.8V503.8Z" fill="#5222D0"/>
<path d="M1108.5 512.7C1108.5 512.6 1108.5 512.6 1108.5 512.7C1108.5 512.8 1108.6 513 1108.6 513.2V513.3C1108.5 513.5 1108.4 513.6 1108.3 513.8C1108.5 513.6 1108.3 513.7 1107.9 514C1107.7 513.9 1107.5 513.9 1107.3 513.8C1107.2 513.7 1107.1 513.7 1107.1 513.6C1107 513.4 1107 513.2 1106.9 513V512.9C1107 512.7 1107.1 512.6 1107.2 512.4C1107.4 512.4 1107.6 512.3 1107.8 512.3L1108.6 513.1V513.4C1108.1 513.5 1107.6 513.7 1107.1 513.8L1107 513.7C1106.9 513.5 1106.8 513.4 1106.7 513.2C1106.8 512.9 1107 512.6 1107.1 512.4C1107.3 512.3 1107.5 512.3 1107.7 512.2H1107.6C1107 512.3 1106.5 512.7 1106.5 513.3C1106.5 513.9 1107 514.5 1107.6 514.4C1108.2 514.3 1108.8 514 1108.9 513.3C1109.1 512.7 1108.8 512 1108.2 511.7C1107.6 511.4 1107 511.6 1106.7 512.1C1106.1 512.9 1106.5 514.2 1107.5 514.3C1108.4 514.4 1109.2 513.7 1109.2 512.8C1109.2 511.9 1108.3 511.3 1107.4 511.5C1106.5 511.8 1106.1 512.7 1106.5 513.6C1106.8 514.2 1107.6 514.3 1108 514C1108.7 513.9 1108.7 513.2 1108.5 512.7V512.7Z" fill="#161616"/>
<path d="M1117.3 510.3C1117.5 511.3 1117.1 511.2 1116.2 510C1116.4 509.9 1116.5 509.8 1116.7 509.7C1117.1 509.7 1117.4 509.9 1117.6 510.4C1117.7 509.8 1117 509.3 1116.5 509.3C1115.8 509.3 1115.4 509.8 1115.4 510.4C1115.3 511.3 1116.2 512 1117 511.9C1118 511.9 1118.6 510.9 1118.3 510C1118 509.1 1117 508.6 1116.1 509.1C1115.2 509.6 1115.1 510.5 1115.5 511.4C1115.7 512 1116.6 512.1 1117 511.8C1117.5 511.5 1117.6 510.9 1117.3 510.3V510.3Z" fill="#161616"/>
<path d="M1114.5 516.9C1115.1 516.9 1115.2 517.1 1114.8 517.6C1114.8 518 1114.7 518.2 1114.4 518.2C1114.3 517.8 1114.3 517.3 1114.2 516.9C1114.5 516.8 1114.7 516.8 1115 517C1114 515.9 1112.4 517.5 1113.4 518.6C1114.1 519.4 1115.4 519.2 1115.9 518.3C1116.4 517.4 1115.9 516.3 1115 516C1114 515.7 1113 516.4 1112.9 517.4C1112.9 518.5 1114 519.3 1115 519.1C1116.5 518.7 1115.9 516.5 1114.5 516.9V516.9Z" fill="#161616"/>
<path d="M1096 538.7C1102.2 537.6 1107.6 534 1111.1 528.7C1111.9 527.5 1110 526.4 1109.2 527.6C1106 532.4 1101.2 535.5 1095.5 536.6C1094 536.8 1094.6 538.9 1096 538.7V538.7Z" fill="#161616"/>
<path opacity="0.1" d="M1130 469.4C1131.8 473 1134.1 477.8 1136.7 483.5C1144.7 500.9 1145.6 505.7 1145.9 509.9C1146.3 516.2 1145.2 521 1144.3 524.4C1139.7 543 1126.2 555.4 1119.5 560.8C1122.8 560.4 1126.8 559.7 1131.2 558.2C1138 555.9 1143.3 552.8 1146.9 550.2C1146.6 553.3 1146.6 558.1 1148.4 563.5C1150.4 569.9 1154 573.9 1157 577.7C1159.3 580.6 1163.4 585.2 1169.9 588.9C1176.2 592.6 1182.1 593.9 1185.7 594.5C1194.1 596.4 1201.1 596.2 1205.8 595.8C1212.3 595.2 1222.6 594.3 1232.2 586.9C1234.6 585 1240.1 580.7 1243.4 573.1C1244.2 571.3 1245.4 567.9 1246 558.9C1246.7 548.3 1247.2 540.9 1244.7 531.5C1242.1 521.8 1237.4 514.3 1232.8 508.8C1224.8 530.3 1205.5 542.7 1188.1 540.1C1174.5 538 1166.3 527.3 1163.9 524C1169.2 525.2 1174.6 523.6 1177.7 519.7C1181.4 515.3 1182.5 507.4 1177.7 503.2C1173.9 499.9 1167.6 499.8 1162.9 503.5C1157.2 499.4 1150.7 494 1144.1 487C1138.2 480.9 1133.6 474.8 1130 469.4V469.4Z" fill="#6D6C6C"/>
<path d="M1106.9 501.9C1106.3 500.9 1106.2 499.4 1107.2 498.6C1106.9 498.7 1106.7 498.8 1106.4 498.9H1106.7C1106.4 498.8 1106.2 498.7 1105.9 498.6C1106.9 499.4 1106.1 502.5 1105.7 503.4C1105.9 503.2 1106.1 503.1 1106.4 502.9C1106.3 502.9 1106.2 503 1106.2 503C1106.5 503 1106.8 503.1 1107.1 503.1C1106.5 502.8 1106.6 501.2 1106.7 500.8C1106.8 499.9 1107 499.1 1107.4 498.4C1106.9 498.5 1106.4 498.7 1105.9 498.8C1106.4 499.2 1106.5 500 1106.4 500.6C1106.4 500.9 1106.3 501.2 1106.2 501.4C1106.1 501.9 1105.9 501.9 1106.4 502C1106.6 502.2 1106.8 502.3 1107.1 502.5C1107.1 502.4 1107 502.4 1107 502.3C1106.1 501.2 1104.2 502.3 1105.1 503.4C1105.6 504 1106.3 504.4 1107.1 504.1C1108 503.8 1108.3 502.9 1108.5 502.1C1109 500.1 1109 498.1 1107.2 496.8C1106.7 496.4 1105.9 496.7 1105.7 497.2C1104.7 499.2 1104.1 502.3 1105.4 504.3C1105.9 505.1 1107 505.5 1107.8 504.9C1108.7 504.2 1108.8 502.4 1108.9 501.4C1109.1 499.9 1108.8 495.6 1106.2 496.9C1104.1 498 1104.3 501.4 1105.3 503.1C1105.7 504.3 1107.7 503.1 1106.9 501.9V501.9Z" fill="#161616"/>
<path d="M1102.3 491.7C1107.6 490.8 1112.1 493.7 1116.2 496.8C1117.4 497.7 1118.5 495.7 1117.3 494.9C1112.7 491.4 1107.7 488.7 1101.7 489.6C1100.3 489.7 1100.9 491.9 1102.3 491.7V491.7Z" fill="#161616"/>
<path d="M1108.3 527.7C1109.4 528.4 1110.4 529.3 1111.3 530.3C1112.3 531.4 1113.9 529.8 1112.9 528.7C1111.9 527.6 1110.7 526.6 1109.4 525.7C1108.2 524.9 1107.1 526.9 1108.3 527.7Z" fill="#161616"/>
</svg>
